{
	"asset":{
		"generator":"Khronos glTF Blender I/O v4.2.69",
		"version":"2.0"
	},
	"scene":0,
	"scenes":[
		{
			"name":"Scene",
			"nodes":[
				0,
				1,
				2
			]
		}
	],
	"nodes":[
		{
			"name":"Circle"
		},
		{
			"mesh":0,
			"name":"Cylinder",
			"rotation":[
				0,
				0.7071068286895752,
				0,
				0.7071068286895752
			]
		},
		{
			"mesh":1,
			"name":"Cylinder.002",
			"rotation":[
				0,
				0.7071068286895752,
				0,
				0.7071068286895752
			]
		}
	],
	"materials":[
		{
			"doubleSided":true,
			"name":"Material.002",
			"pbrMetallicRoughness":{
				"baseColorFactor":[
					0.4206988215446472,
					0.44279804825782776,
					0.4793359339237213,
					1
				],
				"metallicFactor":0.9032257795333862,
				"roughnessFactor":0.5322580337524414
			}
		},
		{
			"doubleSided":true,
			"name":"outside",
			"pbrMetallicRoughness":{
				"baseColorFactor":[
					0.4793205261230469,
					0.39435356855392456,
					0.29876890778541565,
					1
				],
				"roughnessFactor":0.3010752201080322
			}
		},
		{
			"doubleSided":true,
			"name":"top",
			"pbrMetallicRoughness":{
				"baseColorFactor":[
					0.18867933750152588,
					0.18867933750152588,
					0.18867933750152588,
					1
				],
				"metallicFactor":0.8924731016159058,
				"roughnessFactor":0.5
			}
		},
		{
			"doubleSided":true,
			"name":"Material.003",
			"pbrMetallicRoughness":{
				"baseColorFactor":[
					0.11113493144512177,
					0.00042707769898697734,
					0.8005679845809937,
					1
				],
				"metallicFactor":0,
				"roughnessFactor":0.5440000295639038
			}
		}
	],
	"meshes":[
		{
			"name":"Cylinder",
			"primitives":[
				{
					"attributes":{
						"POSITION":0,
						"NORMAL":1,
						"TEXCOORD_0":2,
						"TANGENT":3
					},
					"indices":4,
					"material":0
				},
				{
					"attributes":{
						"POSITION":5,
						"NORMAL":6,
						"TEXCOORD_0":7,
						"TANGENT":8
					},
					"indices":9,
					"material":1
				},
				{
					"attributes":{
						"POSITION":10,
						"NORMAL":11,
						"TEXCOORD_0":12,
						"TANGENT":13
					},
					"indices":14,
					"material":2
				},
				{
					"attributes":{
						"POSITION":15,
						"NORMAL":16,
						"TEXCOORD_0":17,
						"TANGENT":18
					},
					"indices":19,
					"material":3
				}
			]
		},
		{
			"name":"Cylinder.002",
			"primitives":[
				{
					"attributes":{
						"POSITION":20,
						"NORMAL":21,
						"TEXCOORD_0":22,
						"TANGENT":23
					},
					"indices":24,
					"material":1
				}
			]
		}
	],
	"accessors":[
		{
			"bufferView":0,
			"componentType":5126,
			"count":85968,
			"max":[
				1.2498010396957397,
				0.051400210708379745,
				1.3852750062942505
			],
			"min":[
				-1.2498009204864502,
				-0.5337796211242676,
				-1.3852750062942505
			],
			"type":"VEC3"
		},
		{
			"bufferView":1,
			"componentType":5126,
			"count":85968,
			"type":"VEC3"
		},
		{
			"bufferView":2,
			"componentType":5126,
			"count":85968,
			"type":"VEC2"
		},
		{
			"bufferView":3,
			"componentType":5126,
			"count":85968,
			"type":"VEC4"
		},
		{
			"bufferView":4,
			"componentType":5125,
			"count":509184,
			"type":"SCALAR"
		},
		{
			"bufferView":5,
			"componentType":5126,
			"count":11328,
			"max":[
				0.8912314176559448,
				-0.09334302693605423,
				0.8893836140632629
			],
			"min":[
				-0.8912313580513,
				-0.48561763763427734,
				-0.8893834948539734
			],
			"type":"VEC3"
		},
		{
			"bufferView":6,
			"componentType":5126,
			"count":11328,
			"type":"VEC3"
		},
		{
			"bufferView":7,
			"componentType":5126,
			"count":11328,
			"type":"VEC2"
		},
		{
			"bufferView":8,
			"componentType":5126,
			"count":11328,
			"type":"VEC4"
		},
		{
			"bufferView":9,
			"componentType":5123,
			"count":64512,
			"type":"SCALAR"
		},
		{
			"bufferView":10,
			"componentType":5126,
			"count":1776,
			"max":[
				0.26089248061180115,
				-0.18517792224884033,
				0.25031861662864685
			],
			"min":[
				-0.26089245080947876,
				-0.1994887739419937,
				-0.2503185570240021
			],
			"type":"VEC3"
		},
		{
			"bufferView":11,
			"componentType":5126,
			"count":1776,
			"type":"VEC3"
		},
		{
			"bufferView":12,
			"componentType":5126,
			"count":1776,
			"type":"VEC2"
		},
		{
			"bufferView":13,
			"componentType":5126,
			"count":1776,
			"type":"VEC4"
		},
		{
			"bufferView":14,
			"componentType":5123,
			"count":9216,
			"type":"SCALAR"
		},
		{
			"bufferView":15,
			"componentType":5126,
			"count":19056,
			"max":[
				0.9461286067962646,
				-0.012499118223786354,
				0.9463958144187927
			],
			"min":[
				-0.9461284279823303,
				-0.2361394762992859,
				-0.9463958144187927
			],
			"type":"VEC3"
		},
		{
			"bufferView":16,
			"componentType":5126,
			"count":19056,
			"type":"VEC3"
		},
		{
			"bufferView":17,
			"componentType":5126,
			"count":19056,
			"type":"VEC2"
		},
		{
			"bufferView":18,
			"componentType":5126,
			"count":19056,
			"type":"VEC4"
		},
		{
			"bufferView":19,
			"componentType":5123,
			"count":109440,
			"type":"SCALAR"
		},
		{
			"bufferView":20,
			"componentType":5126,
			"count":54168,
			"max":[
				0.8701120615005493,
				-0.09166096150875092,
				0.8701118230819702
			],
			"min":[
				-0.8701117038726807,
				-0.4814828634262085,
				-0.8701115846633911
			],
			"type":"VEC3"
		},
		{
			"bufferView":21,
			"componentType":5126,
			"count":54168,
			"type":"VEC3"
		},
		{
			"bufferView":22,
			"componentType":5126,
			"count":54168,
			"type":"VEC2"
		},
		{
			"bufferView":23,
			"componentType":5126,
			"count":54168,
			"type":"VEC4"
		},
		{
			"bufferView":24,
			"componentType":5123,
			"count":313344,
			"type":"SCALAR"
		}
	],
	"bufferViews":[
		{
			"buffer":0,
			"byteLength":1031616,
			"byteOffset":0,
			"target":34962
		},
		{
			"buffer":0,
			"byteLength":1031616,
			"byteOffset":1031616,
			"target":34962
		},
		{
			"buffer":0,
			"byteLength":687744,
			"byteOffset":2063232,
			"target":34962
		},
		{
			"buffer":0,
			"byteLength":1375488,
			"byteOffset":2750976,
			"target":34962
		},
		{
			"buffer":0,
			"byteLength":2036736,
			"byteOffset":4126464,
			"target":34963
		},
		{
			"buffer":0,
			"byteLength":135936,
			"byteOffset":6163200,
			"target":34962
		},
		{
			"buffer":0,
			"byteLength":135936,
			"byteOffset":6299136,
			"target":34962
		},
		{
			"buffer":0,
			"byteLength":90624,
			"byteOffset":6435072,
			"target":34962
		},
		{
			"buffer":0,
			"byteLength":181248,
			"byteOffset":6525696,
			"target":34962
		},
		{
			"buffer":0,
			"byteLength":129024,
			"byteOffset":6706944,
			"target":34963
		},
		{
			"buffer":0,
			"byteLength":21312,
			"byteOffset":6835968,
			"target":34962
		},
		{
			"buffer":0,
			"byteLength":21312,
			"byteOffset":6857280,
			"target":34962
		},
		{
			"buffer":0,
			"byteLength":14208,
			"byteOffset":6878592,
			"target":34962
		},
		{
			"buffer":0,
			"byteLength":28416,
			"byteOffset":6892800,
			"target":34962
		},
		{
			"buffer":0,
			"byteLength":18432,
			"byteOffset":6921216,
			"target":34963
		},
		{
			"buffer":0,
			"byteLength":228672,
			"byteOffset":6939648,
			"target":34962
		},
		{
			"buffer":0,
			"byteLength":228672,
			"byteOffset":7168320,
			"target":34962
		},
		{
			"buffer":0,
			"byteLength":152448,
			"byteOffset":7396992,
			"target":34962
		},
		{
			"buffer":0,
			"byteLength":304896,
			"byteOffset":7549440,
			"target":34962
		},
		{
			"buffer":0,
			"byteLength":218880,
			"byteOffset":7854336,
			"target":34963
		},
		{
			"buffer":0,
			"byteLength":650016,
			"byteOffset":8073216,
			"target":34962
		},
		{
			"buffer":0,
			"byteLength":650016,
			"byteOffset":8723232,
			"target":34962
		},
		{
			"buffer":0,
			"byteLength":433344,
			"byteOffset":9373248,
			"target":34962
		},
		{
			"buffer":0,
			"byteLength":866688,
			"byteOffset":9806592,
			"target":34962
		},
		{
			"buffer":0,
			"byteLength":626688,
			"byteOffset":10673280,
			"target":34963
		}
	],
	"buffers":[
		{
			"byteLength":11299968,
			"uri":"orbiter.bin"
		}
	]
}
