{
	"asset":{
		"generator":"Khronos glTF Blender I/O v4.2.69",
		"version":"2.0"
	},
	"scene":0,
	"scenes":[
		{
			"name":"Scene",
			"nodes":[
				0,
				1,
				2,
				3,
				4,
				5
			]
		}
	],
	"nodes":[
		{
			"name":"Empty15",
			"rotation":[
				0,
				0.2588190734386444,
				0,
				0.965925931930542
			]
		},
		{
			"mesh":0,
			"name":"body",
			"rotation":[
				0,
				0.7071068286895752,
				0,
				0.7071068286895752
			]
		},
		{
			"name":"Empty",
			"rotation":[
				0,
				0.2588190734386444,
				0,
				0.965925931930542
			]
		},
		{
			"name":"Empty15n",
			"rotation":[
				0,
				0.13052619993686676,
				0,
				0.9914448857307434
			]
		},
		{
			"mesh":1,
			"name":"flower",
			"rotation":[
				0,
				0.7071068286895752,
				0,
				0.7071068286895752
			]
		},
		{
			"mesh":2,
			"name":"iris",
			"scale":[
				0.05472976341843605,
				0.05472976341843605,
				0.05472976341843605
			],
			"translation":[
				0,
				-0.35615265369415283,
				0
			]
		}
	],
	"materials":[
		{
			"doubleSided":true,
			"name":"sides",
			"pbrMetallicRoughness":{
				"baseColorFactor":[
					0.4206988215446472,
					0.44279804825782776,
					0.4793359339237213,
					1
				],
				"metallicFactor":1.0,
				"roughnessFactor":0.4
			}
		},
		{
			"doubleSided":true,
			"name":"outside",
			"pbrMetallicRoughness":{
				"baseColorFactor":[
					0.4793205261230469,
					0.39435356855392456,
					0.29876890778541565,
					1
				],
				"metallicFactor":0.9946236610412598,
				"roughnessFactor":0.3
			}
		},
		{
			"doubleSided":true,
			"name":"top",
			"pbrMetallicRoughness":{
				"baseColorFactor":[
					0.18867933750152588,
					0.18867933750152588,
					0.18867933750152588,
					1
				],
				"metallicFactor":0.8924731016159058,
				"roughnessFactor":0.5
			}
		},
		{
			"doubleSided":true,
			"name":"screen",
			"pbrMetallicRoughness":{
				"baseColorFactor":[
					0.37436771392822266,
					0.10759943723678589,
					0.8067560195922852,
					1
				],
				"metallicFactor":0.0,
				"roughnessFactor":0.501
			}
		}
	],
	"meshes":[
		{
			"name":"Cylinder",
			"primitives":[
				{
					"attributes":{
						"POSITION":0,
						"NORMAL":1,
						"TEXCOORD_0":2,
						"TANGENT":3
					},
					"indices":4,
					"material":0
				},
				{
					"attributes":{
						"POSITION":5,
						"NORMAL":6,
						"TEXCOORD_0":7,
						"TANGENT":8
					},
					"indices":9,
					"material":1
				},
				{
					"attributes":{
						"POSITION":10,
						"NORMAL":11,
						"TEXCOORD_0":12,
						"TANGENT":13
					},
					"indices":14,
					"material":2
				},
				{
					"attributes":{
						"POSITION":15,
						"NORMAL":16,
						"TEXCOORD_0":17,
						"TANGENT":18
					},
					"indices":19,
					"material":3
				}
			]
		},
		{
			"name":"Cylinder.002",
			"primitives":[
				{
					"attributes":{
						"POSITION":20,
						"NORMAL":21,
						"TEXCOORD_0":22,
						"TANGENT":23
					},
					"indices":24,
					"material":1
				}
			]
		},
		{
			"name":"Sphere",
			"primitives":[
				{
					"attributes":{
						"POSITION":25,
						"NORMAL":26,
						"TEXCOORD_0":27,
						"TANGENT":28
					},
					"indices":29,
					"material":3
				}
			]
		}
	],
	"accessors":[
		{
			"bufferView":0,
			"componentType":5126,
			"count":20328,
			"max":[
				1.2498010396957397,
				0.0473034642636776,
				1.3852750062942505
			],
			"min":[
				-1.2498009204864502,
				-0.5337796211242676,
				-1.3852750062942505
			],
			"type":"VEC3"
		},
		{
			"bufferView":1,
			"componentType":5126,
			"count":20328,
			"type":"VEC3"
		},
		{
			"bufferView":2,
			"componentType":5126,
			"count":20328,
			"type":"VEC2"
		},
		{
			"bufferView":3,
			"componentType":5126,
			"count":20328,
			"type":"VEC4"
		},
		{
			"bufferView":4,
			"componentType":5123,
			"count":117216,
			"type":"SCALAR"
		},
		{
			"bufferView":5,
			"componentType":5126,
			"count":2496,
			"max":[
				0.7608173489570618,
				-0.19846366345882416,
				0.7599108219146729
			],
			"min":[
				-0.760817289352417,
				-0.4846075475215912,
				-0.7599106431007385
			],
			"type":"VEC3"
		},
		{
			"bufferView":6,
			"componentType":5126,
			"count":2496,
			"type":"VEC3"
		},
		{
			"bufferView":7,
			"componentType":5126,
			"count":2496,
			"type":"VEC2"
		},
		{
			"bufferView":8,
			"componentType":5126,
			"count":2496,
			"type":"VEC4"
		},
		{
			"bufferView":9,
			"componentType":5123,
			"count":13824,
			"type":"SCALAR"
		},
		{
			"bufferView":10,
			"componentType":5126,
			"count":2280,
			"max":[
				1.1056462526321411,
				0.03875281289219856,
				1.2120994329452515
			],
			"min":[
				-1.105646014213562,
				-0.18373487889766693,
				-1.212099313735962
			],
			"type":"VEC3"
		},
		{
			"bufferView":11,
			"componentType":5126,
			"count":2280,
			"type":"VEC3"
		},
		{
			"bufferView":12,
			"componentType":5126,
			"count":2280,
			"type":"VEC2"
		},
		{
			"bufferView":13,
			"componentType":5126,
			"count":2280,
			"type":"VEC4"
		},
		{
			"bufferView":14,
			"componentType":5123,
			"count":12096,
			"type":"SCALAR"
		},
		{
			"bufferView":15,
			"componentType":5126,
			"count":4104,
			"max":[
				0.9835294485092163,
				-0.02371165342628956,
				0.9820947647094727
			],
			"min":[
				-0.9835293889045715,
				-0.1384429782629013,
				-0.9820947051048279
			],
			"type":"VEC3"
		},
		{
			"bufferView":16,
			"componentType":5126,
			"count":4104,
			"type":"VEC3"
		},
		{
			"bufferView":17,
			"componentType":5126,
			"count":4104,
			"type":"VEC2"
		},
		{
			"bufferView":18,
			"componentType":5126,
			"count":4104,
			"type":"VEC4"
		},
		{
			"bufferView":19,
			"componentType":5123,
			"count":22752,
			"type":"SCALAR"
		},
		{
			"bufferView":20,
			"componentType":5126,
			"count":14040,
			"max":[
				0.8699609637260437,
				-0.09649918228387833,
				0.8699606657028198
			],
			"min":[
				-0.869960606098175,
				-0.4814828634262085,
				-0.8699604272842407
			],
			"type":"VEC3"
		},
		{
			"bufferView":21,
			"componentType":5126,
			"count":14040,
			"type":"VEC3"
		},
		{
			"bufferView":22,
			"componentType":5126,
			"count":14040,
			"type":"VEC2"
		},
		{
			"bufferView":23,
			"componentType":5126,
			"count":14040,
			"type":"VEC4"
		},
		{
			"bufferView":24,
			"componentType":5123,
			"count":78336,
			"type":"SCALAR"
		},
		{
			"bufferView":25,
			"componentType":5126,
			"count":151,
			"max":[
				1.2703337669372559,
				0.47777998447418213,
				1.2703337669372559
			],
			"min":[
				-1.2703336477279663,
				-0.044618308544158936,
				-1.2703337669372559
			],
			"type":"VEC3"
		},
		{
			"bufferView":26,
			"componentType":5126,
			"count":151,
			"type":"VEC3"
		},
		{
			"bufferView":27,
			"componentType":5126,
			"count":151,
			"type":"VEC2"
		},
		{
			"bufferView":28,
			"componentType":5126,
			"count":151,
			"type":"VEC4"
		},
		{
			"bufferView":29,
			"componentType":5123,
			"count":672,
			"type":"SCALAR"
		}
	],
	"bufferViews":[
		{
			"buffer":0,
			"byteLength":243936,
			"byteOffset":0,
			"target":34962
		},
		{
			"buffer":0,
			"byteLength":243936,
			"byteOffset":243936,
			"target":34962
		},
		{
			"buffer":0,
			"byteLength":162624,
			"byteOffset":487872,
			"target":34962
		},
		{
			"buffer":0,
			"byteLength":325248,
			"byteOffset":650496,
			"target":34962
		},
		{
			"buffer":0,
			"byteLength":234432,
			"byteOffset":975744,
			"target":34963
		},
		{
			"buffer":0,
			"byteLength":29952,
			"byteOffset":1210176,
			"target":34962
		},
		{
			"buffer":0,
			"byteLength":29952,
			"byteOffset":1240128,
			"target":34962
		},
		{
			"buffer":0,
			"byteLength":19968,
			"byteOffset":1270080,
			"target":34962
		},
		{
			"buffer":0,
			"byteLength":39936,
			"byteOffset":1290048,
			"target":34962
		},
		{
			"buffer":0,
			"byteLength":27648,
			"byteOffset":1329984,
			"target":34963
		},
		{
			"buffer":0,
			"byteLength":27360,
			"byteOffset":1357632,
			"target":34962
		},
		{
			"buffer":0,
			"byteLength":27360,
			"byteOffset":1384992,
			"target":34962
		},
		{
			"buffer":0,
			"byteLength":18240,
			"byteOffset":1412352,
			"target":34962
		},
		{
			"buffer":0,
			"byteLength":36480,
			"byteOffset":1430592,
			"target":34962
		},
		{
			"buffer":0,
			"byteLength":24192,
			"byteOffset":1467072,
			"target":34963
		},
		{
			"buffer":0,
			"byteLength":49248,
			"byteOffset":1491264,
			"target":34962
		},
		{
			"buffer":0,
			"byteLength":49248,
			"byteOffset":1540512,
			"target":34962
		},
		{
			"buffer":0,
			"byteLength":32832,
			"byteOffset":1589760,
			"target":34962
		},
		{
			"buffer":0,
			"byteLength":65664,
			"byteOffset":1622592,
			"target":34962
		},
		{
			"buffer":0,
			"byteLength":45504,
			"byteOffset":1688256,
			"target":34963
		},
		{
			"buffer":0,
			"byteLength":168480,
			"byteOffset":1733760,
			"target":34962
		},
		{
			"buffer":0,
			"byteLength":168480,
			"byteOffset":1902240,
			"target":34962
		},
		{
			"buffer":0,
			"byteLength":112320,
			"byteOffset":2070720,
			"target":34962
		},
		{
			"buffer":0,
			"byteLength":224640,
			"byteOffset":2183040,
			"target":34962
		},
		{
			"buffer":0,
			"byteLength":156672,
			"byteOffset":2407680,
			"target":34963
		},
		{
			"buffer":0,
			"byteLength":1812,
			"byteOffset":2564352,
			"target":34962
		},
		{
			"buffer":0,
			"byteLength":1812,
			"byteOffset":2566164,
			"target":34962
		},
		{
			"buffer":0,
			"byteLength":1208,
			"byteOffset":2567976,
			"target":34962
		},
		{
			"buffer":0,
			"byteLength":2416,
			"byteOffset":2569184,
			"target":34962
		},
		{
			"buffer":0,
			"byteLength":1344,
			"byteOffset":2571600,
			"target":34963
		}
	],
	"buffers":[
		{
			"byteLength":2572944,
			"uri":"models/orbiter.bin"
		}
	]
}
