{
	"asset":{
		"generator":"Khronos glTF Blender I/O v4.4.56",
		"version":"2.0"
	},
	"scene":0,
	"scenes":[
		{
			"name":"Scene",
			"nodes":[
				0
			]
		}
	],
	"nodes":[
		{
			"mesh":0,
			"name":"Sphere"
		}
	],
	"meshes":[
		{
			"name":"Mesh",
			"primitives":[
				{
					"attributes":{
						"POSITION":0,
						"NORMAL":1,
						"TEXCOORD_0":2
					},
					"indices":3
				}
			]
		}
	],
	"accessors":[
		{
			"bufferView":0,
			"componentType":5126,
			"count":2095238,
			"max":[
				0.9991973638534546,
				0.9999524354934692,
				0.9991965293884277
			],
			"min":[
				-0.9991955757141113,
				-0.9999524354934692,
				-0.9991961717605591
			],
			"type":"VEC3"
		},
		{
			"bufferView":1,
			"componentType":5126,
			"count":2095238,
			"type":"VEC3"
		},
		{
			"bufferView":2,
			"componentType":5126,
			"count":2095238,
			"type":"VEC2"
		},
		{
			"bufferView":3,
			"componentType":5125,
			"count":12484608,
			"type":"SCALAR"
		}
	],
	"bufferViews":[
		{
			"buffer":0,
			"byteLength":25142856,
			"byteOffset":0,
			"target":34962
		},
		{
			"buffer":0,
			"byteLength":25142856,
			"byteOffset":25142856,
			"target":34962
		},
		{
			"buffer":0,
			"byteLength":16761904,
			"byteOffset":50285712,
			"target":34962
		},
		{
			"buffer":0,
			"byteLength":49938432,
			"byteOffset":67047616,
			"target":34963
		}
	],
	"buffers":[
		{
			"byteLength":116986048,
			"uri":"models/earth.bin"
		}
	]
}
