{
	"asset":{
		"generator":"Khronos glTF Blender I/O v4.4.56",
		"version":"2.0"
	},
	"scene":0,
	"scenes":[
		{
			"name":"Scene",
			"nodes":[
				0
			]
		}
	],
	"nodes":[
		{
			"mesh":0,
			"name":"Sphere"
		}
	],
	"meshes":[
		{
			"name":"Mesh",
			"primitives":[
				{
					"attributes":{
						"POSITION":0,
						"NORMAL":1,
						"TEXCOORD_0":2
					},
					"indices":3
				}
			]
		}
	],
	"accessors":[
		{
			"bufferView":0,
			"componentType":5126,
			"count":527160,
			"max":[
				0.9991969466209412,
				0.9999524354934692,
				0.9991965293884277
			],
			"min":[
				-0.9991960525512695,
				-0.9999524354934692,
				-0.9991961717605591
			],
			"type":"VEC3"
		},
		{
			"bufferView":1,
			"componentType":5126,
			"count":527160,
			"type":"VEC3"
		},
		{
			"bufferView":2,
			"componentType":5126,
			"count":527160,
			"type":"VEC2"
		},
		{
			"bufferView":3,
			"componentType":5125,
			"count":3121152,
			"type":"SCALAR"
		}
	],
	"bufferViews":[
		{
			"buffer":0,
			"byteLength":6325920,
			"byteOffset":0,
			"target":34962
		},
		{
			"buffer":0,
			"byteLength":6325920,
			"byteOffset":6325920,
			"target":34962
		},
		{
			"buffer":0,
			"byteLength":4217280,
			"byteOffset":12651840,
			"target":34962
		},
		{
			"buffer":0,
			"byteLength":12484608,
			"byteOffset":16869120,
			"target":34963
		}
	],
	"buffers":[
		{
			"byteLength":29353728,
			"uri":"models/earth.bin"
		}
	]
}
