{
	"asset":{
		"generator":"Khronos glTF Blender I/O v4.4.56",
		"version":"2.0"
	},
	"scene":0,
	"scenes":[
		{
			"name":"Scene",
			"nodes":[
				0,
				1,
				2,
				3,
				4
			]
		}
	],
	"nodes":[
		{
			"mesh":0,
			"name":"Cylinder"
		},
		{
			"mesh":1,
			"name":"Cylinder.001"
		},
		{
			"mesh":2,
			"name":"Torus.001",
			"scale":[
				1.0061264038085938,
				1.0061264038085938,
				1.0061264038085938
			],
			"translation":[
				0,
				-0.1983858048915863,
				0
			]
		},
		{
			"mesh":3,
			"name":"Torus.002",
			"scale":[
				1.1834239959716797,
				1.1834239959716797,
				1.1834239959716797
			],
			"translation":[
				0,
				-0.16157370805740356,
				0
			]
		},
		{
			"mesh":4,
			"name":"Sphere",
			"translation":[
				0,
				-0.20000000298023224,
				0
			]
		}
	],
	"materials":[
		{
			"doubleSided":true,
			"name":"top",
			"pbrMetallicRoughness":{
				"baseColorFactor":[
					0.06303029507398605,
					0.06303029507398605,
					0.06303029507398605,
					1
				],
				"metallicFactor":0.8924731016159058,
				"roughnessFactor":0.5
			}
		},
		{
			"doubleSided":true,
			"name":"outside",
			"pbrMetallicRoughness":{
				"baseColorFactor":[
					0.4793205261230469,
					0.39435356855392456,
					0.29876890778541565,
					1
				],
				"roughnessFactor":0.3010752201080322
			}
		},
		{
			"doubleSided":true,
			"name":"flower",
			"pbrMetallicRoughness":{
				"baseColorFactor":[
					0.10653750598430634,
					0.013988979160785675,
					0.2572891116142273,
					1
				],
				"metallicFactor":0,
				"roughnessFactor":0.20984455943107605
			}
		},
		{
			"doubleSided":true,
			"name":"Material.001",
			"pbrMetallicRoughness":{
				"baseColorFactor":[
					0.4178386926651001,
					0.03680972009897232,
					1,
					1
				],
				"metallicFactor":0.6839378476142883,
				"roughnessFactor":0.2409326434135437
			}
		}
	],
	"meshes":[
		{
			"name":"Cylinder",
			"primitives":[
				{
					"attributes":{
						"POSITION":0,
						"NORMAL":1,
						"TEXCOORD_0":2
					},
					"indices":3,
					"material":0
				},
				{
					"attributes":{
						"POSITION":4,
						"NORMAL":5,
						"TEXCOORD_0":6
					},
					"indices":7,
					"material":1
				},
				{
					"attributes":{
						"POSITION":8,
						"NORMAL":9,
						"TEXCOORD_0":10
					},
					"indices":11,
					"material":0
				},
				{
					"attributes":{
						"POSITION":12,
						"NORMAL":13,
						"TEXCOORD_0":14
					},
					"indices":15,
					"material":2
				},
				{
					"attributes":{
						"POSITION":16,
						"NORMAL":17,
						"TEXCOORD_0":18
					},
					"indices":19,
					"material":3
				}
			]
		},
		{
			"name":"Cylinder.001",
			"primitives":[
				{
					"attributes":{
						"POSITION":20,
						"NORMAL":21,
						"TEXCOORD_0":22
					},
					"indices":23,
					"material":1
				}
			]
		},
		{
			"name":"Mesh",
			"primitives":[
				{
					"attributes":{
						"POSITION":24,
						"NORMAL":25,
						"TEXCOORD_0":26
					},
					"indices":27,
					"material":1
				}
			]
		},
		{
			"name":"Mesh",
			"primitives":[
				{
					"attributes":{
						"POSITION":28,
						"NORMAL":29,
						"TEXCOORD_0":30
					},
					"indices":27,
					"material":0
				}
			]
		},
		{
			"name":"Sphere",
			"primitives":[
				{
					"attributes":{
						"POSITION":31,
						"NORMAL":32,
						"TEXCOORD_0":33
					},
					"indices":34,
					"material":3
				}
			]
		}
	],
	"accessors":[
		{
			"bufferView":0,
			"componentType":5126,
			"count":8466,
			"max":[
				0.6363713145256042,
				-0.07901273667812347,
				0.7127726078033447
			],
			"min":[
				-0.6363713145256042,
				-0.5013418793678284,
				-0.7127726674079895
			],
			"type":"VEC3"
		},
		{
			"bufferView":1,
			"componentType":5126,
			"count":8466,
			"type":"VEC3"
		},
		{
			"bufferView":2,
			"componentType":5126,
			"count":8466,
			"type":"VEC2"
		},
		{
			"bufferView":3,
			"componentType":5123,
			"count":45504,
			"type":"SCALAR"
		},
		{
			"bufferView":4,
			"componentType":5126,
			"count":2628,
			"max":[
				0.47623589634895325,
				-0.12139429152011871,
				0.47623589634895325
			],
			"min":[
				-0.47623589634895325,
				-0.35348591208457947,
				-0.47623589634895325
			],
			"type":"VEC3"
		},
		{
			"bufferView":5,
			"componentType":5126,
			"count":2628,
			"type":"VEC3"
		},
		{
			"bufferView":6,
			"componentType":5126,
			"count":2628,
			"type":"VEC2"
		},
		{
			"bufferView":7,
			"componentType":5123,
			"count":13248,
			"type":"SCALAR"
		},
		{
			"bufferView":8,
			"componentType":5126,
			"count":6336,
			"max":[
				0.7646029591560364,
				-0.01348796859383583,
				0.8580135107040405
			],
			"min":[
				-0.7646029591560364,
				-0.2362355887889862,
				-0.8580135107040405
			],
			"type":"VEC3"
		},
		{
			"bufferView":9,
			"componentType":5126,
			"count":6336,
			"type":"VEC3"
		},
		{
			"bufferView":10,
			"componentType":5126,
			"count":6336,
			"type":"VEC2"
		},
		{
			"bufferView":11,
			"componentType":5123,
			"count":36864,
			"type":"SCALAR"
		},
		{
			"bufferView":12,
			"componentType":5126,
			"count":2496,
			"max":[
				0.6585316061973572,
				-0.09115076810121536,
				0.7369475364685059
			],
			"min":[
				-0.6585316061973572,
				-0.09909319877624512,
				-0.7369475364685059
			],
			"type":"VEC3"
		},
		{
			"bufferView":13,
			"componentType":5126,
			"count":2496,
			"type":"VEC3"
		},
		{
			"bufferView":14,
			"componentType":5126,
			"count":2496,
			"type":"VEC2"
		},
		{
			"bufferView":15,
			"componentType":5123,
			"count":13824,
			"type":"SCALAR"
		},
		{
			"bufferView":16,
			"componentType":5126,
			"count":1728,
			"max":[
				0.5729897022247314,
				-0.09892471134662628,
				0.5729896426200867
			],
			"min":[
				-0.5729897022247314,
				-0.125325545668602,
				-0.5729896426200867
			],
			"type":"VEC3"
		},
		{
			"bufferView":17,
			"componentType":5126,
			"count":1728,
			"type":"VEC3"
		},
		{
			"bufferView":18,
			"componentType":5126,
			"count":1728,
			"type":"VEC2"
		},
		{
			"bufferView":19,
			"componentType":5123,
			"count":9216,
			"type":"SCALAR"
		},
		{
			"bufferView":20,
			"componentType":5126,
			"count":86040,
			"max":[
				0.44534987211227417,
				-0.13634614646434784,
				0.44534990191459656
			],
			"min":[
				-0.4453499913215637,
				-0.4386979341506958,
				-0.4453497529029846
			],
			"type":"VEC3"
		},
		{
			"bufferView":21,
			"componentType":5126,
			"count":86040,
			"type":"VEC3"
		},
		{
			"bufferView":22,
			"componentType":5126,
			"count":86040,
			"type":"VEC2"
		},
		{
			"bufferView":23,
			"componentType":5125,
			"count":502272,
			"type":"SCALAR"
		},
		{
			"bufferView":24,
			"componentType":5126,
			"count":2569,
			"max":[
				0.22294606268405914,
				-0.2527177631855011,
				0.22294603288173676
			],
			"min":[
				-0.22294601798057556,
				-0.2799389660358429,
				-0.22294604778289795
			],
			"type":"VEC3"
		},
		{
			"bufferView":25,
			"componentType":5126,
			"count":2569,
			"type":"VEC3"
		},
		{
			"bufferView":26,
			"componentType":5126,
			"count":2569,
			"type":"VEC2"
		},
		{
			"bufferView":27,
			"componentType":5123,
			"count":13824,
			"type":"SCALAR"
		},
		{
			"bufferView":28,
			"componentType":5126,
			"count":2569,
			"max":[
				0.22294606268405914,
				-0.2375095635652542,
				0.22294603288173676
			],
			"min":[
				-0.22294601798057556,
				-0.2799389660358429,
				-0.22294604778289795
			],
			"type":"VEC3"
		},
		{
			"bufferView":29,
			"componentType":5126,
			"count":2569,
			"type":"VEC3"
		},
		{
			"bufferView":30,
			"componentType":5126,
			"count":2569,
			"type":"VEC2"
		},
		{
			"bufferView":31,
			"componentType":5126,
			"count":559,
			"max":[
				0.15658313035964966,
				-0.2580943703651428,
				0.15658313035964966
			],
			"min":[
				-0.15658307075500488,
				-0.32181504368782043,
				-0.15658318996429443
			],
			"type":"VEC3"
		},
		{
			"bufferView":32,
			"componentType":5126,
			"count":559,
			"type":"VEC3"
		},
		{
			"bufferView":33,
			"componentType":5126,
			"count":559,
			"type":"VEC2"
		},
		{
			"bufferView":34,
			"componentType":5123,
			"count":2880,
			"type":"SCALAR"
		}
	],
	"bufferViews":[
		{
			"buffer":0,
			"byteLength":101592,
			"byteOffset":0,
			"target":34962
		},
		{
			"buffer":0,
			"byteLength":101592,
			"byteOffset":101592,
			"target":34962
		},
		{
			"buffer":0,
			"byteLength":67728,
			"byteOffset":203184,
			"target":34962
		},
		{
			"buffer":0,
			"byteLength":91008,
			"byteOffset":270912,
			"target":34963
		},
		{
			"buffer":0,
			"byteLength":31536,
			"byteOffset":361920,
			"target":34962
		},
		{
			"buffer":0,
			"byteLength":31536,
			"byteOffset":393456,
			"target":34962
		},
		{
			"buffer":0,
			"byteLength":21024,
			"byteOffset":424992,
			"target":34962
		},
		{
			"buffer":0,
			"byteLength":26496,
			"byteOffset":446016,
			"target":34963
		},
		{
			"buffer":0,
			"byteLength":76032,
			"byteOffset":472512,
			"target":34962
		},
		{
			"buffer":0,
			"byteLength":76032,
			"byteOffset":548544,
			"target":34962
		},
		{
			"buffer":0,
			"byteLength":50688,
			"byteOffset":624576,
			"target":34962
		},
		{
			"buffer":0,
			"byteLength":73728,
			"byteOffset":675264,
			"target":34963
		},
		{
			"buffer":0,
			"byteLength":29952,
			"byteOffset":748992,
			"target":34962
		},
		{
			"buffer":0,
			"byteLength":29952,
			"byteOffset":778944,
			"target":34962
		},
		{
			"buffer":0,
			"byteLength":19968,
			"byteOffset":808896,
			"target":34962
		},
		{
			"buffer":0,
			"byteLength":27648,
			"byteOffset":828864,
			"target":34963
		},
		{
			"buffer":0,
			"byteLength":20736,
			"byteOffset":856512,
			"target":34962
		},
		{
			"buffer":0,
			"byteLength":20736,
			"byteOffset":877248,
			"target":34962
		},
		{
			"buffer":0,
			"byteLength":13824,
			"byteOffset":897984,
			"target":34962
		},
		{
			"buffer":0,
			"byteLength":18432,
			"byteOffset":911808,
			"target":34963
		},
		{
			"buffer":0,
			"byteLength":1032480,
			"byteOffset":930240,
			"target":34962
		},
		{
			"buffer":0,
			"byteLength":1032480,
			"byteOffset":1962720,
			"target":34962
		},
		{
			"buffer":0,
			"byteLength":688320,
			"byteOffset":2995200,
			"target":34962
		},
		{
			"buffer":0,
			"byteLength":2009088,
			"byteOffset":3683520,
			"target":34963
		},
		{
			"buffer":0,
			"byteLength":30828,
			"byteOffset":5692608,
			"target":34962
		},
		{
			"buffer":0,
			"byteLength":30828,
			"byteOffset":5723436,
			"target":34962
		},
		{
			"buffer":0,
			"byteLength":20552,
			"byteOffset":5754264,
			"target":34962
		},
		{
			"buffer":0,
			"byteLength":27648,
			"byteOffset":5774816,
			"target":34963
		},
		{
			"buffer":0,
			"byteLength":30828,
			"byteOffset":5802464,
			"target":34962
		},
		{
			"buffer":0,
			"byteLength":30828,
			"byteOffset":5833292,
			"target":34962
		},
		{
			"buffer":0,
			"byteLength":20552,
			"byteOffset":5864120,
			"target":34962
		},
		{
			"buffer":0,
			"byteLength":6708,
			"byteOffset":5884672,
			"target":34962
		},
		{
			"buffer":0,
			"byteLength":6708,
			"byteOffset":5891380,
			"target":34962
		},
		{
			"buffer":0,
			"byteLength":4472,
			"byteOffset":5898088,
			"target":34962
		},
		{
			"buffer":0,
			"byteLength":5760,
			"byteOffset":5902560,
			"target":34963
		}
	],
	"buffers":[
		{
			"byteLength":5908320,
			"uri":"models/flower8888.bin"
		}
	]
}
