{
	"asset":{
		"generator":"Khronos glTF Blender I/O v4.2.69",
		"version":"2.0"
	},
	"scene":0,
	"scenes":[
		{
			"name":"Scene",
			"nodes":[
				0,
				1,
				2
			]
		}
	],
	"nodes":[
		{
			"mesh":0,
			"name":"body",
			"rotation":[
				0,
				0.7071068286895752,
				0,
				0.7071068286895752
			]
		},
		{
			"mesh":1,
			"name":"flower",
			"rotation":[
				0,
				0.7071068286895752,
				0,
				0.7071068286895752
			]
		},
		{
			"mesh":2,
			"name":"iris",
			"scale":[
				0.05472976341843605,
				0.05472976341843605,
				0.05472976341843605
			],
			"translation":[
				0,
				-0.35615265369415283,
				0
			]
		}
	],
	"materials":[
		{
			"doubleSided":true,
			"name":"Material.002",
			"pbrMetallicRoughness":{
				"baseColorFactor":[
					0.4206988215446472,
					0.44279804825782776,
					0.4793359339237213,
					1
				],
				"metallicFactor":0.9032257795333862,
				"roughnessFactor":0.5322580337524414
			}
		},
		{
			"doubleSided":true,
			"name":"outside",
			"pbrMetallicRoughness":{
				"baseColorFactor":[
					0.4793205261230469,
					0.39435356855392456,
					0.29876890778541565,
					1
				],
				"roughnessFactor":0.3010752201080322
			}
		},
		{
			"doubleSided":true,
			"name":"top",
			"pbrMetallicRoughness":{
				"baseColorFactor":[
					0.18867933750152588,
					0.18867933750152588,
					0.18867933750152588,
					1
				],
				"metallicFactor":0.8924731016159058,
				"roughnessFactor":0.5
			}
		},
		{
			"doubleSided":true,
			"name":"Material.003",
			"pbrMetallicRoughness":{
				"baseColorFactor":[
					0.37436771392822266,
					0.10759943723678589,
					0.8067560195922852,
					1
				],
				"metallicFactor":0,
				"roughnessFactor":0.5440000295639038
			}
		}
	],
	"meshes":[
		{
			"name":"body",
			"primitives":[
				{
					"name":"body1",
					"attributes":{
						"POSITION":0,
						"NORMAL":1,
						"TEXCOORD_0":2,
						"TANGENT":3
					},
					"indices":4,
					"material":0
				},
				{
					"name":"body2",
					"attributes":{
						"POSITION":5,
						"NORMAL":6,
						"TEXCOORD_0":7,
						"TANGENT":8
					},
					"indices":9,
					"material":1
				},
				{
					"name":"body3",
					"attributes":{
						"POSITION":10,
						"NORMAL":11,
						"TEXCOORD_0":12,
						"TANGENT":13
					},
					"indices":14,
					"material":2
				},
				{
					"name":"body4",
					"attributes":{
						"POSITION":15,
						"NORMAL":16,
						"TEXCOORD_0":17,
						"TANGENT":18
					},
					"indices":19,
					"material":3
				}
			]
		},
		{
			"name":"flower",
			"primitives":[
				{
					"name":"flower1",
					"attributes":{
						"POSITION":20,
						"NORMAL":21,
						"TEXCOORD_0":22,
						"TANGENT":23
					},
					"indices":24,
					"material":1
				}
			]
		},
		{
			"name":"iris",
			"primitives":[
				{
					"name":"iris1",
					"attributes":{
						"POSITION":25,
						"NORMAL":26,
						"TEXCOORD_0":27,
						"TANGENT":28
					},
					"indices":29,
					"material":2
				}
			]
		}
	],
	"accessors":[
		{
			"bufferView":0,
			"componentType":5126,
			"count":64176,
			"max":[
				1.2498010396957397,
				0.04737871512770653,
				1.3852750062942505
			],
			"min":[
				-1.2498009204864502,
				-0.5337796211242676,
				-1.3852750062942505
			],
			"type":"VEC3"
		},
		{
			"bufferView":1,
			"componentType":5126,
			"count":64176,
			"type":"VEC3"
		},
		{
			"bufferView":2,
			"componentType":5126,
			"count":64176,
			"type":"VEC2"
		},
		{
			"bufferView":3,
			"componentType":5126,
			"count":64176,
			"type":"VEC4"
		},
		{
			"bufferView":4,
			"componentType":5123,
			"count":376704,
			"type":"SCALAR"
		},
		{
			"bufferView":5,
			"componentType":5126,
			"count":11328,
			"max":[
				0.8894214034080505,
				-0.09532993286848068,
				0.8875762820243835
			],
			"min":[
				-0.8894213438034058,
				-0.48561763763427734,
				-0.8875762820243835
			],
			"type":"VEC3"
		},
		{
			"bufferView":6,
			"componentType":5126,
			"count":11328,
			"type":"VEC3"
		},
		{
			"bufferView":7,
			"componentType":5126,
			"count":11328,
			"type":"VEC2"
		},
		{
			"bufferView":8,
			"componentType":5126,
			"count":11328,
			"type":"VEC4"
		},
		{
			"bufferView":9,
			"componentType":5123,
			"count":64512,
			"type":"SCALAR"
		},
		{
			"bufferView":10,
			"componentType":5126,
			"count":16272,
			"max":[
				1.1056462526321411,
				0.038234930485486984,
				1.2120994329452515
			],
			"min":[
				-1.105646014213562,
				-0.18375422060489655,
				-1.212099313735962
			],
			"type":"VEC3"
		},
		{
			"bufferView":11,
			"componentType":5126,
			"count":16272,
			"type":"VEC3"
		},
		{
			"bufferView":12,
			"componentType":5126,
			"count":16272,
			"type":"VEC2"
		},
		{
			"bufferView":13,
			"componentType":5126,
			"count":16272,
			"type":"VEC4"
		},
		{
			"bufferView":14,
			"componentType":5123,
			"count":94464,
			"type":"SCALAR"
		},
		{
			"bufferView":15,
			"componentType":5126,
			"count":23664,
			"max":[
				0.9835294485092163,
				-0.02371165342628956,
				0.9820947647094727
			],
			"min":[
				-0.9835293889045715,
				-0.37399712204933167,
				-0.9820947051048279
			],
			"type":"VEC3"
		},
		{
			"bufferView":16,
			"componentType":5126,
			"count":23664,
			"type":"VEC3"
		},
		{
			"bufferView":17,
			"componentType":5126,
			"count":23664,
			"type":"VEC2"
		},
		{
			"bufferView":18,
			"componentType":5126,
			"count":23664,
			"type":"VEC4"
		},
		{
			"bufferView":19,
			"componentType":5123,
			"count":137088,
			"type":"SCALAR"
		},
		{
			"bufferView":20,
			"componentType":5126,
			"count":54168,
			"max":[
				0.8701120615005493,
				-0.09641549736261368,
				0.8701118230819702
			],
			"min":[
				-0.8701117038726807,
				-0.4814828634262085,
				-0.8701115846633911
			],
			"type":"VEC3"
		},
		{
			"bufferView":21,
			"componentType":5126,
			"count":54168,
			"type":"VEC3"
		},
		{
			"bufferView":22,
			"componentType":5126,
			"count":54168,
			"type":"VEC2"
		},
		{
			"bufferView":23,
			"componentType":5126,
			"count":54168,
			"type":"VEC4"
		},
		{
			"bufferView":24,
			"componentType":5123,
			"count":313344,
			"type":"SCALAR"
		},
		{
			"bufferView":25,
			"componentType":5126,
			"count":151,
			"max":[
				1,
				0.20561456680297852,
				1
			],
			"min":[
				-0.9999999403953552,
				-0.20561456680297852,
				-1
			],
			"type":"VEC3"
		},
		{
			"bufferView":26,
			"componentType":5126,
			"count":151,
			"type":"VEC3"
		},
		{
			"bufferView":27,
			"componentType":5126,
			"count":151,
			"type":"VEC2"
		},
		{
			"bufferView":28,
			"componentType":5126,
			"count":151,
			"type":"VEC4"
		},
		{
			"bufferView":29,
			"componentType":5123,
			"count":672,
			"type":"SCALAR"
		}
	],
	"bufferViews":[
		{
			"buffer":0,
			"byteLength":770112,
			"byteOffset":0,
			"target":34962
		},
		{
			"buffer":0,
			"byteLength":770112,
			"byteOffset":770112,
			"target":34962
		},
		{
			"buffer":0,
			"byteLength":513408,
			"byteOffset":1540224,
			"target":34962
		},
		{
			"buffer":0,
			"byteLength":1026816,
			"byteOffset":2053632,
			"target":34962
		},
		{
			"buffer":0,
			"byteLength":753408,
			"byteOffset":3080448,
			"target":34963
		},
		{
			"buffer":0,
			"byteLength":135936,
			"byteOffset":3833856,
			"target":34962
		},
		{
			"buffer":0,
			"byteLength":135936,
			"byteOffset":3969792,
			"target":34962
		},
		{
			"buffer":0,
			"byteLength":90624,
			"byteOffset":4105728,
			"target":34962
		},
		{
			"buffer":0,
			"byteLength":181248,
			"byteOffset":4196352,
			"target":34962
		},
		{
			"buffer":0,
			"byteLength":129024,
			"byteOffset":4377600,
			"target":34963
		},
		{
			"buffer":0,
			"byteLength":195264,
			"byteOffset":4506624,
			"target":34962
		},
		{
			"buffer":0,
			"byteLength":195264,
			"byteOffset":4701888,
			"target":34962
		},
		{
			"buffer":0,
			"byteLength":130176,
			"byteOffset":4897152,
			"target":34962
		},
		{
			"buffer":0,
			"byteLength":260352,
			"byteOffset":5027328,
			"target":34962
		},
		{
			"buffer":0,
			"byteLength":188928,
			"byteOffset":5287680,
			"target":34963
		},
		{
			"buffer":0,
			"byteLength":283968,
			"byteOffset":5476608,
			"target":34962
		},
		{
			"buffer":0,
			"byteLength":283968,
			"byteOffset":5760576,
			"target":34962
		},
		{
			"buffer":0,
			"byteLength":189312,
			"byteOffset":6044544,
			"target":34962
		},
		{
			"buffer":0,
			"byteLength":378624,
			"byteOffset":6233856,
			"target":34962
		},
		{
			"buffer":0,
			"byteLength":274176,
			"byteOffset":6612480,
			"target":34963
		},
		{
			"buffer":0,
			"byteLength":650016,
			"byteOffset":6886656,
			"target":34962
		},
		{
			"buffer":0,
			"byteLength":650016,
			"byteOffset":7536672,
			"target":34962
		},
		{
			"buffer":0,
			"byteLength":433344,
			"byteOffset":8186688,
			"target":34962
		},
		{
			"buffer":0,
			"byteLength":866688,
			"byteOffset":8620032,
			"target":34962
		},
		{
			"buffer":0,
			"byteLength":626688,
			"byteOffset":9486720,
			"target":34963
		},
		{
			"buffer":0,
			"byteLength":1812,
			"byteOffset":10113408,
			"target":34962
		},
		{
			"buffer":0,
			"byteLength":1812,
			"byteOffset":10115220,
			"target":34962
		},
		{
			"buffer":0,
			"byteLength":1208,
			"byteOffset":10117032,
			"target":34962
		},
		{
			"buffer":0,
			"byteLength":2416,
			"byteOffset":10118240,
			"target":34962
		},
		{
			"buffer":0,
			"byteLength":1344,
			"byteOffset":10120656,
			"target":34963
		}
	],
	"buffers":[
		{
			"byteLength":10122000,
			"uri":"models/flower88.4.bin"
		}
	]
}
