{
	"asset":{
		"generator":"Khronos glTF Blender I/O v4.4.56",
		"version":"2.0"
	},
	"scene":0,
	"scenes":[
		{
			"name":"Scene",
			"nodes":[
				0,
				1,
				2,
				3,
				4
			]
		}
	],
	"nodes":[
		{
			"mesh":0,
			"name":"outside"
		},
		{
			"mesh":1,
			"name":"flower"
		},
		{
			"mesh":2,
			"name":"ring",
			"scale":[
				1.0061264038085938,
				1.0061264038085938,
				1.0061264038085938
			],
			"translation":[
				0,
				-0.1983858048915863,
				0
			]
		},
		{
			"mesh":3,
			"name":"separator",
			"scale":[
				1.1834239959716797,
				1.1834239959716797,
				1.1834239959716797
			],
			"translation":[
				0,
				-0.16157370805740356,
				0
			]
		},
		{
			"mesh":4,
			"name":"core",
			"translation":[
				0,
				-0.20000000298023224,
				0
			]
		}
	],
	"materials":[
		{
			"doubleSided":true,
			"name":"top",
			"pbrMetallicRoughness":{
				"baseColorFactor":[
					0.06303029507398605,
					0.06303029507398605,
					0.06303029507398605,
					1
				],
				"metallicFactor":0.8924731016159058,
				"roughnessFactor":0.5
			}
		},
		{
			"doubleSided":true,
			"name":"flower",
			"pbrMetallicRoughness":{
				"baseColorFactor":[
					0.4793205261230469,
					0.39435356855392456,
					0.29876890778541565,
					1
				],
				"roughnessFactor":0.3010752201080322,
				"metallicFactor":0.9946236610412598,
				"roughnessFactor":0.4,
				"ior":0.0
			}
		},
		{
			"doubleSided":true,
			"name":"strip",
			"pbrMetallicRoughness":{
				"baseColorFactor":[
					0.24178386926651001,
					0.03680972009897232,
					0.5,
					1
				],
				"metallicFactor":0,
				"roughnessFactor":0.5009892582893372,
				"ior":4.5
			}
		},
		{
			"doubleSided":true,
			"name":"ring",
			"pbrMetallicRoughness":{
				"baseColorFactor":[
					0.24178386926651001,
					0.03680972009897232,
					0.5,
					1
				],
				"metallicFactor":0,
				"roughnessFactor":0.75009892582893372,
				"ior":4.5
			}
		}
	],
	"meshes":[
		{
			"name":"Cylinder",
			"primitives":[
				{
					"attributes":{
						"POSITION":0,
						"NORMAL":1,
						"TEXCOORD_0":2,
						"TANGENT":3,
						"COLOR_0":4,
						"COLOR_1":5
					},
					"indices":6,
					"material":0
				},
				{
					"attributes":{
						"POSITION":7,
						"NORMAL":8,
						"TEXCOORD_0":9,
						"TANGENT":10,
						"COLOR_0":11,
						"COLOR_1":12
					},
					"indices":13,
					"material":1
				},
				{
					"attributes":{
						"POSITION":14,
						"NORMAL":15,
						"TEXCOORD_0":16,
						"TANGENT":17,
						"COLOR_0":18,
						"COLOR_1":19
					},
					"indices":20,
					"material":0
				},
				{
					"attributes":{
						"POSITION":21,
						"NORMAL":22,
						"TEXCOORD_0":23,
						"TANGENT":24,
						"COLOR_0":25,
						"COLOR_1":26
					},
					"indices":27,
					"material":2
				},
				{
					"attributes":{
						"POSITION":28,
						"NORMAL":29,
						"TEXCOORD_0":30,
						"TANGENT":31,
						"COLOR_0":32,
						"COLOR_1":33
					},
					"indices":34,
					"material":3
				}
			]
		},
		{
			"name":"Cylinder.001",
			"primitives":[
				{
					"attributes":{
						"POSITION":35,
						"NORMAL":36,
						"TEXCOORD_0":37,
						"TANGENT":38,
						"COLOR_0":39,
						"COLOR_1":40
					},
					"indices":41,
					"material":1
				}
			]
		},
		{
			"name":"Mesh",
			"primitives":[
				{
					"attributes":{
						"POSITION":42,
						"NORMAL":43,
						"TEXCOORD_0":44,
						"TANGENT":45,
						"COLOR_0":46,
						"COLOR_1":47
					},
					"indices":48,
					"material":1
				}
			]
		},
		{
			"name":"Mesh",
			"primitives":[
				{
					"attributes":{
						"POSITION":49,
						"NORMAL":50,
						"TEXCOORD_0":51,
						"TANGENT":52,
						"COLOR_0":53,
						"COLOR_1":54
					},
					"indices":48,
					"material":0
				}
			]
		},
		{
			"name":"Sphere",
			"primitives":[
				{
					"attributes":{
						"POSITION":55,
						"NORMAL":56,
						"TEXCOORD_0":57,
						"TANGENT":58,
						"COLOR_0":59,
						"COLOR_1":60
					},
					"indices":61,
					"material":3
				}
			]
		}
	],
	"accessors":[
		{
			"bufferView":0,
			"componentType":5126,
			"count":8466,
			"max":[
				0.6363713145256042,
				-0.07901273667812347,
				0.7127726078033447
			],
			"min":[
				-0.6363713145256042,
				-0.5013418793678284,
				-0.7127726674079895
			],
			"type":"VEC3"
		},
		{
			"bufferView":1,
			"componentType":5126,
			"count":8466,
			"type":"VEC3"
		},
		{
			"bufferView":2,
			"componentType":5126,
			"count":8466,
			"type":"VEC2"
		},
		{
			"bufferView":3,
			"componentType":5126,
			"count":8466,
			"type":"VEC4"
		},
		{
			"bufferView":4,
			"componentType":5121,
			"count":8466,
			"normalized":true,
			"type":"VEC4"
		},
		{
			"bufferView":5,
			"componentType":5123,
			"count":8466,
			"normalized":true,
			"type":"VEC4"
		},
		{
			"bufferView":6,
			"componentType":5123,
			"count":45504,
			"type":"SCALAR"
		},
		{
			"bufferView":7,
			"componentType":5126,
			"count":2628,
			"max":[
				0.47623589634895325,
				-0.12139429152011871,
				0.47623589634895325
			],
			"min":[
				-0.47623589634895325,
				-0.35348591208457947,
				-0.47623589634895325
			],
			"type":"VEC3"
		},
		{
			"bufferView":8,
			"componentType":5126,
			"count":2628,
			"type":"VEC3"
		},
		{
			"bufferView":9,
			"componentType":5126,
			"count":2628,
			"type":"VEC2"
		},
		{
			"bufferView":10,
			"componentType":5126,
			"count":2628,
			"type":"VEC4"
		},
		{
			"bufferView":11,
			"componentType":5121,
			"count":2628,
			"normalized":true,
			"type":"VEC4"
		},
		{
			"bufferView":12,
			"componentType":5123,
			"count":2628,
			"normalized":true,
			"type":"VEC4"
		},
		{
			"bufferView":13,
			"componentType":5123,
			"count":13248,
			"type":"SCALAR"
		},
		{
			"bufferView":14,
			"componentType":5126,
			"count":6336,
			"max":[
				0.7646029591560364,
				-0.01348796859383583,
				0.8580135107040405
			],
			"min":[
				-0.7646029591560364,
				-0.2362355887889862,
				-0.8580135107040405
			],
			"type":"VEC3"
		},
		{
			"bufferView":15,
			"componentType":5126,
			"count":6336,
			"type":"VEC3"
		},
		{
			"bufferView":16,
			"componentType":5126,
			"count":6336,
			"type":"VEC2"
		},
		{
			"bufferView":17,
			"componentType":5126,
			"count":6336,
			"type":"VEC4"
		},
		{
			"bufferView":18,
			"componentType":5121,
			"count":6336,
			"normalized":true,
			"type":"VEC4"
		},
		{
			"bufferView":19,
			"componentType":5123,
			"count":6336,
			"normalized":true,
			"type":"VEC4"
		},
		{
			"bufferView":20,
			"componentType":5123,
			"count":36864,
			"type":"SCALAR"
		},
		{
			"bufferView":21,
			"componentType":5126,
			"count":2496,
			"max":[
				0.6585316061973572,
				-0.09115076810121536,
				0.7369475364685059
			],
			"min":[
				-0.6585316061973572,
				-0.09909319877624512,
				-0.7369475364685059
			],
			"type":"VEC3"
		},
		{
			"bufferView":22,
			"componentType":5126,
			"count":2496,
			"type":"VEC3"
		},
		{
			"bufferView":23,
			"componentType":5126,
			"count":2496,
			"type":"VEC2"
		},
		{
			"bufferView":24,
			"componentType":5126,
			"count":2496,
			"type":"VEC4"
		},
		{
			"bufferView":25,
			"componentType":5121,
			"count":2496,
			"normalized":true,
			"type":"VEC4"
		},
		{
			"bufferView":26,
			"componentType":5123,
			"count":2496,
			"normalized":true,
			"type":"VEC4"
		},
		{
			"bufferView":27,
			"componentType":5123,
			"count":13824,
			"type":"SCALAR"
		},
		{
			"bufferView":28,
			"componentType":5126,
			"count":1728,
			"max":[
				0.5729897022247314,
				-0.09892471134662628,
				0.5729896426200867
			],
			"min":[
				-0.5729897022247314,
				-0.125325545668602,
				-0.5729896426200867
			],
			"type":"VEC3"
		},
		{
			"bufferView":29,
			"componentType":5126,
			"count":1728,
			"type":"VEC3"
		},
		{
			"bufferView":30,
			"componentType":5126,
			"count":1728,
			"type":"VEC2"
		},
		{
			"bufferView":31,
			"componentType":5126,
			"count":1728,
			"type":"VEC4"
		},
		{
			"bufferView":32,
			"componentType":5121,
			"count":1728,
			"normalized":true,
			"type":"VEC4"
		},
		{
			"bufferView":33,
			"componentType":5123,
			"count":1728,
			"normalized":true,
			"type":"VEC4"
		},
		{
			"bufferView":34,
			"componentType":5123,
			"count":9216,
			"type":"SCALAR"
		},
		{
			"bufferView":35,
			"componentType":5126,
			"count":86040,
			"max":[
				0.44534987211227417,
				-0.13634614646434784,
				0.44534990191459656
			],
			"min":[
				-0.4453499913215637,
				-0.4386979341506958,
				-0.4453497529029846
			],
			"type":"VEC3"
		},
		{
			"bufferView":36,
			"componentType":5126,
			"count":86040,
			"type":"VEC3"
		},
		{
			"bufferView":37,
			"componentType":5126,
			"count":86040,
			"type":"VEC2"
		},
		{
			"bufferView":38,
			"componentType":5126,
			"count":86040,
			"type":"VEC4"
		},
		{
			"bufferView":39,
			"componentType":5121,
			"count":86040,
			"normalized":true,
			"type":"VEC4"
		},
		{
			"bufferView":40,
			"componentType":5123,
			"count":86040,
			"normalized":true,
			"type":"VEC4"
		},
		{
			"bufferView":41,
			"componentType":5125,
			"count":502272,
			"type":"SCALAR"
		},
		{
			"bufferView":42,
			"componentType":5126,
			"count":2579,
			"max":[
				0.22294606268405914,
				-0.2527177631855011,
				0.22294603288173676
			],
			"min":[
				-0.22294601798057556,
				-0.2799389660358429,
				-0.22294604778289795
			],
			"type":"VEC3"
		},
		{
			"bufferView":43,
			"componentType":5126,
			"count":2579,
			"type":"VEC3"
		},
		{
			"bufferView":44,
			"componentType":5126,
			"count":2579,
			"type":"VEC2"
		},
		{
			"bufferView":45,
			"componentType":5126,
			"count":2579,
			"type":"VEC4"
		},
		{
			"bufferView":46,
			"componentType":5121,
			"count":2579,
			"normalized":true,
			"type":"VEC4"
		},
		{
			"bufferView":47,
			"componentType":5123,
			"count":2579,
			"normalized":true,
			"type":"VEC4"
		},
		{
			"bufferView":48,
			"componentType":5123,
			"count":13824,
			"type":"SCALAR"
		},
		{
			"bufferView":49,
			"componentType":5126,
			"count":2579,
			"max":[
				0.22294606268405914,
				-0.2375095635652542,
				0.22294603288173676
			],
			"min":[
				-0.22294601798057556,
				-0.2799389660358429,
				-0.22294604778289795
			],
			"type":"VEC3"
		},
		{
			"bufferView":50,
			"componentType":5126,
			"count":2579,
			"type":"VEC3"
		},
		{
			"bufferView":51,
			"componentType":5126,
			"count":2579,
			"type":"VEC2"
		},
		{
			"bufferView":52,
			"componentType":5126,
			"count":2579,
			"type":"VEC4"
		},
		{
			"bufferView":53,
			"componentType":5121,
			"count":2579,
			"normalized":true,
			"type":"VEC4"
		},
		{
			"bufferView":54,
			"componentType":5123,
			"count":2579,
			"normalized":true,
			"type":"VEC4"
		},
		{
			"bufferView":55,
			"componentType":5126,
			"count":559,
			"max":[
				0.15658313035964966,
				-0.2580943703651428,
				0.15658313035964966
			],
			"min":[
				-0.15658307075500488,
				-0.32181504368782043,
				-0.15658318996429443
			],
			"type":"VEC3"
		},
		{
			"bufferView":56,
			"componentType":5126,
			"count":559,
			"type":"VEC3"
		},
		{
			"bufferView":57,
			"componentType":5126,
			"count":559,
			"type":"VEC2"
		},
		{
			"bufferView":58,
			"componentType":5126,
			"count":559,
			"type":"VEC4"
		},
		{
			"bufferView":59,
			"componentType":5121,
			"count":559,
			"normalized":true,
			"type":"VEC4"
		},
		{
			"bufferView":60,
			"componentType":5123,
			"count":559,
			"normalized":true,
			"type":"VEC4"
		},
		{
			"bufferView":61,
			"componentType":5123,
			"count":2880,
			"type":"SCALAR"
		}
	],
	"bufferViews":[
		{
			"buffer":0,
			"byteLength":101592,
			"byteOffset":0,
			"target":34962
		},
		{
			"buffer":0,
			"byteLength":101592,
			"byteOffset":101592,
			"target":34962
		},
		{
			"buffer":0,
			"byteLength":67728,
			"byteOffset":203184,
			"target":34962
		},
		{
			"buffer":0,
			"byteLength":135456,
			"byteOffset":270912,
			"target":34962
		},
		{
			"buffer":0,
			"byteLength":33864,
			"byteOffset":406368,
			"target":34962
		},
		{
			"buffer":0,
			"byteLength":67728,
			"byteOffset":440232,
			"target":34962
		},
		{
			"buffer":0,
			"byteLength":91008,
			"byteOffset":507960,
			"target":34963
		},
		{
			"buffer":0,
			"byteLength":31536,
			"byteOffset":598968,
			"target":34962
		},
		{
			"buffer":0,
			"byteLength":31536,
			"byteOffset":630504,
			"target":34962
		},
		{
			"buffer":0,
			"byteLength":21024,
			"byteOffset":662040,
			"target":34962
		},
		{
			"buffer":0,
			"byteLength":42048,
			"byteOffset":683064,
			"target":34962
		},
		{
			"buffer":0,
			"byteLength":10512,
			"byteOffset":725112,
			"target":34962
		},
		{
			"buffer":0,
			"byteLength":21024,
			"byteOffset":735624,
			"target":34962
		},
		{
			"buffer":0,
			"byteLength":26496,
			"byteOffset":756648,
			"target":34963
		},
		{
			"buffer":0,
			"byteLength":76032,
			"byteOffset":783144,
			"target":34962
		},
		{
			"buffer":0,
			"byteLength":76032,
			"byteOffset":859176,
			"target":34962
		},
		{
			"buffer":0,
			"byteLength":50688,
			"byteOffset":935208,
			"target":34962
		},
		{
			"buffer":0,
			"byteLength":101376,
			"byteOffset":985896,
			"target":34962
		},
		{
			"buffer":0,
			"byteLength":25344,
			"byteOffset":1087272,
			"target":34962
		},
		{
			"buffer":0,
			"byteLength":50688,
			"byteOffset":1112616,
			"target":34962
		},
		{
			"buffer":0,
			"byteLength":73728,
			"byteOffset":1163304,
			"target":34963
		},
		{
			"buffer":0,
			"byteLength":29952,
			"byteOffset":1237032,
			"target":34962
		},
		{
			"buffer":0,
			"byteLength":29952,
			"byteOffset":1266984,
			"target":34962
		},
		{
			"buffer":0,
			"byteLength":19968,
			"byteOffset":1296936,
			"target":34962
		},
		{
			"buffer":0,
			"byteLength":39936,
			"byteOffset":1316904,
			"target":34962
		},
		{
			"buffer":0,
			"byteLength":9984,
			"byteOffset":1356840,
			"target":34962
		},
		{
			"buffer":0,
			"byteLength":19968,
			"byteOffset":1366824,
			"target":34962
		},
		{
			"buffer":0,
			"byteLength":27648,
			"byteOffset":1386792,
			"target":34963
		},
		{
			"buffer":0,
			"byteLength":20736,
			"byteOffset":1414440,
			"target":34962
		},
		{
			"buffer":0,
			"byteLength":20736,
			"byteOffset":1435176,
			"target":34962
		},
		{
			"buffer":0,
			"byteLength":13824,
			"byteOffset":1455912,
			"target":34962
		},
		{
			"buffer":0,
			"byteLength":27648,
			"byteOffset":1469736,
			"target":34962
		},
		{
			"buffer":0,
			"byteLength":6912,
			"byteOffset":1497384,
			"target":34962
		},
		{
			"buffer":0,
			"byteLength":13824,
			"byteOffset":1504296,
			"target":34962
		},
		{
			"buffer":0,
			"byteLength":18432,
			"byteOffset":1518120,
			"target":34963
		},
		{
			"buffer":0,
			"byteLength":1032480,
			"byteOffset":1536552,
			"target":34962
		},
		{
			"buffer":0,
			"byteLength":1032480,
			"byteOffset":2569032,
			"target":34962
		},
		{
			"buffer":0,
			"byteLength":688320,
			"byteOffset":3601512,
			"target":34962
		},
		{
			"buffer":0,
			"byteLength":1376640,
			"byteOffset":4289832,
			"target":34962
		},
		{
			"buffer":0,
			"byteLength":344160,
			"byteOffset":5666472,
			"target":34962
		},
		{
			"buffer":0,
			"byteLength":688320,
			"byteOffset":6010632,
			"target":34962
		},
		{
			"buffer":0,
			"byteLength":2009088,
			"byteOffset":6698952,
			"target":34963
		},
		{
			"buffer":0,
			"byteLength":30948,
			"byteOffset":8708040,
			"target":34962
		},
		{
			"buffer":0,
			"byteLength":30948,
			"byteOffset":8738988,
			"target":34962
		},
		{
			"buffer":0,
			"byteLength":20632,
			"byteOffset":8769936,
			"target":34962
		},
		{
			"buffer":0,
			"byteLength":41264,
			"byteOffset":8790568,
			"target":34962
		},
		{
			"buffer":0,
			"byteLength":10316,
			"byteOffset":8831832,
			"target":34962
		},
		{
			"buffer":0,
			"byteLength":20632,
			"byteOffset":8842148,
			"target":34962
		},
		{
			"buffer":0,
			"byteLength":27648,
			"byteOffset":8862780,
			"target":34963
		},
		{
			"buffer":0,
			"byteLength":30948,
			"byteOffset":8890428,
			"target":34962
		},
		{
			"buffer":0,
			"byteLength":30948,
			"byteOffset":8921376,
			"target":34962
		},
		{
			"buffer":0,
			"byteLength":20632,
			"byteOffset":8952324,
			"target":34962
		},
		{
			"buffer":0,
			"byteLength":41264,
			"byteOffset":8972956,
			"target":34962
		},
		{
			"buffer":0,
			"byteLength":10316,
			"byteOffset":9014220,
			"target":34962
		},
		{
			"buffer":0,
			"byteLength":20632,
			"byteOffset":9024536,
			"target":34962
		},
		{
			"buffer":0,
			"byteLength":6708,
			"byteOffset":9045168,
			"target":34962
		},
		{
			"buffer":0,
			"byteLength":6708,
			"byteOffset":9051876,
			"target":34962
		},
		{
			"buffer":0,
			"byteLength":4472,
			"byteOffset":9058584,
			"target":34962
		},
		{
			"buffer":0,
			"byteLength":8944,
			"byteOffset":9063056,
			"target":34962
		},
		{
			"buffer":0,
			"byteLength":2236,
			"byteOffset":9072000,
			"target":34962
		},
		{
			"buffer":0,
			"byteLength":4472,
			"byteOffset":9074236,
			"target":34962
		},
		{
			"buffer":0,
			"byteLength":5760,
			"byteOffset":9078708,
			"target":34963
		}
	],
	"buffers":[
		{
			"byteLength":9084468,
			"uri":"models/flower8888.bin"
		}
	]
}
