{
	"asset":{
		"generator":"Khronos glTF Blender I/O v4.2.69",
		"version":"2.0"
	},
	"scene":0,
	"scenes":[
		{
			"name":"Scene",
			"nodes":[
				0,
				1,
				2
			]
		}
	],
	"nodes":[
		{
			"mesh":0,
			"name":"body",
			"rotation":[
				0,
				0.7071068286895752,
				0,
				0.7071068286895752
			]
		},
		{
			"mesh":1,
			"name":"flower",
			"rotation":[
				0,
				0.7071068286895752,
				0,
				0.7071068286895752
			]
		},
		{
			"mesh":2,
			"name":"core",
			"scale":[
				0.05472976341843605,
				0.05472976341843605,
				0.05472976341843605
			],
			"translation":[
				0,
				-0.35615265369415283,
				0
			]
		}
	],
	"materials":[
		{
			"doubleSided":true,
			"name":"sides",
			"pbrMetallicRoughness":{
				"baseColorFactor":[
					0.7,
					0.7,
					0.7,
					1
				],
				"metallicFactor":0.9032257795333862,
				"roughnessFactor":0.7,
				"ior":2.8
			}
		},
		{
			"doubleSided":true,
			"name":"outside",
			"pbrMetallicRoughness":{
				"baseColorFactor":[
					0.4793205261230469,
					0.39435356855392456,
					0.29876890778541565,
					1
				],
				"metallicFactor":0.9946236610412598,
				"roughnessFactor":0.4,
				"ior":0.0
			}
		},
		{
			"doubleSided":true,
			"name":"top",
			"pbrMetallicRoughness":{
				"baseColorFactor":[
					0.18867933750152588,
					0.18867933750152588,
					0.18867933750152588,
					1
				],
				"metallicFactor":0.8924731016159058,
				"roughnessFactor":0.5,
				"ior":1.5
			}
		},
		{
			"doubleSided":true,
			"name":"screen",
			"pbrMetallicRoughness":{
				"baseColorFactor":[
					0.37436771392822266,
					0.10759943723678589,
					0.8067560195922852,
					1
				],
				"metallicFactor":0,
				"roughnessFactor":0.5009892582893372,
				"ior":4.5
			}
		}
	],
	"meshes":[
		{
			"name":"Cylinder",
			"primitives":[
				{
					"attributes":{
						"POSITION":0,
						"NORMAL":1,
						"TEXCOORD_0":2,
						"COLOR_0":3,
						"COLOR_1":4
					},
					"indices":5,
					"material":0
				},
				{
					"attributes":{
						"POSITION":6,
						"NORMAL":7,
						"TEXCOORD_0":8,
						"COLOR_0":9,
						"COLOR_1":10
					},
					"indices":11,
					"material":1
				},
				{
					"attributes":{
						"POSITION":12,
						"NORMAL":13,
						"TEXCOORD_0":14,
						"COLOR_0":15,
						"COLOR_1":16
					},
					"indices":17,
					"material":2
				},
				{
					"attributes":{
						"POSITION":18,
						"NORMAL":19,
						"TEXCOORD_0":20,
						"COLOR_0":21,
						"COLOR_1":22
					},
					"indices":23,
					"material":3
				}
			]
		},
		{
			"name":"Cylinder.002",
			"primitives":[
				{
					"attributes":{
						"POSITION":24,
						"NORMAL":25,
						"TEXCOORD_0":26,
						"COLOR_0":27,
						"COLOR_1":28
					},
					"indices":29,
					"material":1
				}
			]
		},
		{
			"name":"Sphere",
			"primitives":[
				{
					"attributes":{
						"POSITION":30,
						"NORMAL":31,
						"TEXCOORD_0":32,
						"COLOR_0":33,
						"COLOR_1":34
					},
					"indices":35,
					"material":3
				}
			]
		}
	],
	"accessors":[
		{
			"bufferView":0,
			"componentType":5126,
			"count":20340,
			"max":[
				1.2498010396957397,
				0.0473034642636776,
				1.3852750062942505
			],
			"min":[
				-1.2498009204864502,
				-0.5337796211242676,
				-1.3852750062942505
			],
			"type":"VEC3"
		},
		{
			"bufferView":1,
			"componentType":5126,
			"count":20340,
			"type":"VEC3"
		},
		{
			"bufferView":2,
			"componentType":5126,
			"count":20340,
			"type":"VEC2"
		},
		{
			"bufferView":3,
			"componentType":5121,
			"count":20340,
			"normalized":true,
			"type":"VEC4"
		},
		{
			"bufferView":4,
			"componentType":5126,
			"count":20340,
			"type":"VEC3"
		},
		{
			"bufferView":5,
			"componentType":5123,
			"count":117216,
			"type":"SCALAR"
		},
		{
			"bufferView":6,
			"componentType":5126,
			"count":2496,
			"max":[
				0.7608173489570618,
				-0.19846366345882416,
				0.7599108219146729
			],
			"min":[
				-0.760817289352417,
				-0.4846075475215912,
				-0.7599106431007385
			],
			"type":"VEC3"
		},
		{
			"bufferView":7,
			"componentType":5126,
			"count":2496,
			"type":"VEC3"
		},
		{
			"bufferView":8,
			"componentType":5126,
			"count":2496,
			"type":"VEC2"
		},
		{
			"bufferView":9,
			"componentType":5121,
			"count":2496,
			"normalized":true,
			"type":"VEC4"
		},
		{
			"bufferView":10,
			"componentType":5126,
			"count":2496,
			"type":"VEC3"
		},
		{
			"bufferView":11,
			"componentType":5123,
			"count":13824,
			"type":"SCALAR"
		},
		{
			"bufferView":12,
			"componentType":5126,
			"count":2280,
			"max":[
				1.1056462526321411,
				0.03875281289219856,
				1.2120994329452515
			],
			"min":[
				-1.105646014213562,
				-0.18373487889766693,
				-1.212099313735962
			],
			"type":"VEC3"
		},
		{
			"bufferView":13,
			"componentType":5126,
			"count":2280,
			"type":"VEC3"
		},
		{
			"bufferView":14,
			"componentType":5126,
			"count":2280,
			"type":"VEC2"
		},
		{
			"bufferView":15,
			"componentType":5121,
			"count":2280,
			"normalized":true,
			"type":"VEC4"
		},
		{
			"bufferView":16,
			"componentType":5126,
			"count":2280,
			"type":"VEC3"
		},
		{
			"bufferView":17,
			"componentType":5123,
			"count":12096,
			"type":"SCALAR"
		},
		{
			"bufferView":18,
			"componentType":5126,
			"count":4230,
			"max":[
				0.9835294485092163,
				-0.02371165342628956,
				0.9820947647094727
			],
			"min":[
				-0.9835293889045715,
				-0.1384429782629013,
				-0.9820947051048279
			],
			"type":"VEC3"
		},
		{
			"bufferView":19,
			"componentType":5126,
			"count":4230,
			"type":"VEC3"
		},
		{
			"bufferView":20,
			"componentType":5126,
			"count":4230,
			"type":"VEC2"
		},
		{
			"bufferView":21,
			"componentType":5121,
			"count":4230,
			"normalized":true,
			"type":"VEC4"
		},
		{
			"bufferView":22,
			"componentType":5126,
			"count":4230,
			"type":"VEC3"
		},
		{
			"bufferView":23,
			"componentType":5123,
			"count":22752,
			"type":"SCALAR"
		},
		{
			"bufferView":24,
			"componentType":5126,
			"count":18552,
			"max":[
				0.8739899396896362,
				-0.09061039239168167,
				0.8739897012710571
			],
			"min":[
				-0.8739895820617676,
				-0.4812510907649994,
				-0.873989462852478
			],
			"type":"VEC3"
		},
		{
			"bufferView":25,
			"componentType":5126,
			"count":18552,
			"type":"VEC3"
		},
		{
			"bufferView":26,
			"componentType":5126,
			"count":18552,
			"type":"VEC2"
		},
		{
			"bufferView":27,
			"componentType":5121,
			"count":18552,
			"normalized":true,
			"type":"VEC4"
		},
		{
			"bufferView":28,
			"componentType":5126,
			"count":18552,
			"type":"VEC3"
		},
		{
			"bufferView":29,
			"componentType":5123,
			"count":103680,
			"type":"SCALAR"
		},
		{
			"bufferView":30,
			"componentType":5126,
			"count":151,
			"max":[
				1.2703337669372559,
				0.47777998447418213,
				1.2703337669372559
			],
			"min":[
				-1.2703336477279663,
				-0.044618308544158936,
				-1.2703337669372559
			],
			"type":"VEC3"
		},
		{
			"bufferView":31,
			"componentType":5126,
			"count":151,
			"type":"VEC3"
		},
		{
			"bufferView":32,
			"componentType":5126,
			"count":151,
			"type":"VEC2"
		},
		{
			"bufferView":33,
			"componentType":5121,
			"count":151,
			"normalized":true,
			"type":"VEC4"
		},
		{
			"bufferView":34,
			"componentType":5126,
			"count":151,
			"type":"VEC3"
		},
		{
			"bufferView":35,
			"componentType":5123,
			"count":672,
			"type":"SCALAR"
		}
	],
	"bufferViews":[
		{
			"buffer":0,
			"byteLength":244080,
			"byteOffset":0,
			"target":34962
		},
		{
			"buffer":0,
			"byteLength":244080,
			"byteOffset":244080,
			"target":34962
		},
		{
			"buffer":0,
			"byteLength":162720,
			"byteOffset":488160,
			"target":34962
		},
		{
			"buffer":0,
			"byteLength":81360,
			"byteOffset":650880,
			"target":34962
		},
		{
			"buffer":0,
			"byteLength":244080,
			"byteOffset":732240,
			"target":34962
		},
		{
			"buffer":0,
			"byteLength":234432,
			"byteOffset":976320,
			"target":34963
		},
		{
			"buffer":0,
			"byteLength":29952,
			"byteOffset":1210752,
			"target":34962
		},
		{
			"buffer":0,
			"byteLength":29952,
			"byteOffset":1240704,
			"target":34962
		},
		{
			"buffer":0,
			"byteLength":19968,
			"byteOffset":1270656,
			"target":34962
		},
		{
			"buffer":0,
			"byteLength":9984,
			"byteOffset":1290624,
			"target":34962
		},
		{
			"buffer":0,
			"byteLength":29952,
			"byteOffset":1300608,
			"target":34962
		},
		{
			"buffer":0,
			"byteLength":27648,
			"byteOffset":1330560,
			"target":34963
		},
		{
			"buffer":0,
			"byteLength":27360,
			"byteOffset":1358208,
			"target":34962
		},
		{
			"buffer":0,
			"byteLength":27360,
			"byteOffset":1385568,
			"target":34962
		},
		{
			"buffer":0,
			"byteLength":18240,
			"byteOffset":1412928,
			"target":34962
		},
		{
			"buffer":0,
			"byteLength":9120,
			"byteOffset":1431168,
			"target":34962
		},
		{
			"buffer":0,
			"byteLength":27360,
			"byteOffset":1440288,
			"target":34962
		},
		{
			"buffer":0,
			"byteLength":24192,
			"byteOffset":1467648,
			"target":34963
		},
		{
			"buffer":0,
			"byteLength":50760,
			"byteOffset":1491840,
			"target":34962
		},
		{
			"buffer":0,
			"byteLength":50760,
			"byteOffset":1542600,
			"target":34962
		},
		{
			"buffer":0,
			"byteLength":33840,
			"byteOffset":1593360,
			"target":34962
		},
		{
			"buffer":0,
			"byteLength":16920,
			"byteOffset":1627200,
			"target":34962
		},
		{
			"buffer":0,
			"byteLength":50760,
			"byteOffset":1644120,
			"target":34962
		},
		{
			"buffer":0,
			"byteLength":45504,
			"byteOffset":1694880,
			"target":34963
		},
		{
			"buffer":0,
			"byteLength":222624,
			"byteOffset":1740384,
			"target":34962
		},
		{
			"buffer":0,
			"byteLength":222624,
			"byteOffset":1963008,
			"target":34962
		},
		{
			"buffer":0,
			"byteLength":148416,
			"byteOffset":2185632,
			"target":34962
		},
		{
			"buffer":0,
			"byteLength":74208,
			"byteOffset":2334048,
			"target":34962
		},
		{
			"buffer":0,
			"byteLength":222624,
			"byteOffset":2408256,
			"target":34962
		},
		{
			"buffer":0,
			"byteLength":207360,
			"byteOffset":2630880,
			"target":34963
		},
		{
			"buffer":0,
			"byteLength":1812,
			"byteOffset":2838240,
			"target":34962
		},
		{
			"buffer":0,
			"byteLength":1812,
			"byteOffset":2840052,
			"target":34962
		},
		{
			"buffer":0,
			"byteLength":1208,
			"byteOffset":2841864,
			"target":34962
		},
		{
			"buffer":0,
			"byteLength":604,
			"byteOffset":2843072,
			"target":34962
		},
		{
			"buffer":0,
			"byteLength":1812,
			"byteOffset":2843676,
			"target":34962
		},
		{
			"buffer":0,
			"byteLength":1344,
			"byteOffset":2845488,
			"target":34963
		}
	],
	"buffers":[
		{
			"byteLength":2846832,
			"uri":"models/orbiter2.bin"
		}
	]
}
