{
	"asset":{
		"generator":"Khronos glTF Blender I/O v4.2.69",
		"version":"2.0"
	},
	"scene":0,
	"scenes":[
		{
			"name":"Scene",
			"nodes":[
				0
			]
		}
	],
	"nodes":[
		{
			"mesh":0,
			"name":"sphere",
			"translation":[
				0,
				-0.4000000059604645,
				0
			]
		}
	],
	"materials":[
		{
			"doubleSided":true,
			"name":"outside",
			"pbrMetallicRoughness":{
				"baseColorFactor":[
					0.3,
					0.5,
					1.0,
					1
				],
				"metallicFactor":1.0,
				"roughnessFactor":0.5
			}
		}
	],
	"meshes":[
		{
			"name":"Sphere.001",
			"primitives":[
				{
					"attributes":{
						"POSITION":0,
						"NORMAL":1,
						"TEXCOORD_0":2,
						"TANGENT":3
					},
					"indices":4,
					"material":0
				}
			]
		}
	],
	"accessors":[
		{
			"bufferView":0,
			"componentType":5126,
			"count":2077,
			"max":[
				0.9999997019767761,
				1,
				0.9999993443489075
			],
			"min":[
				-0.9999990463256836,
				-1,
				-1
			],
			"type":"VEC3"
		},
		{
			"bufferView":1,
			"componentType":5126,
			"count":2077,
			"type":"VEC3"
		},
		{
			"bufferView":2,
			"componentType":5126,
			"count":2077,
			"type":"VEC2"
		},
		{
			"bufferView":3,
			"componentType":5126,
			"count":2077,
			"type":"VEC4"
		},
		{
			"bufferView":4,
			"componentType":5123,
			"count":11520,
			"type":"SCALAR"
		}
	],
	"bufferViews":[
		{
			"buffer":0,
			"byteLength":24924,
			"byteOffset":0,
			"target":34962
		},
		{
			"buffer":0,
			"byteLength":24924,
			"byteOffset":24924,
			"target":34962
		},
		{
			"buffer":0,
			"byteLength":16616,
			"byteOffset":49848,
			"target":34962
		},
		{
			"buffer":0,
			"byteLength":33232,
			"byteOffset":66464,
			"target":34962
		},
		{
			"buffer":0,
			"byteLength":23040,
			"byteOffset":99696,
			"target":34963
		}
	],
	"buffers":[
		{
			"byteLength":122736,
			"uri":"models/sphere.bin"
		}
	]
}
