{
	"asset":{
		"generator":"Khronos glTF Blender I/O v4.4.56",
		"version":"2.0"
	},
	"scene":0,
	"scenes":[
		{
			"name":"Scene",
			"nodes":[
				0
			]
		}
	],
	"nodes":[
		{
			"mesh":0,
			"name":"Sphere"
		}
	],
	"meshes":[
		{
			"name":"Sphere",
			"primitives":[
				{
					"attributes":{
						"POSITION":0,
						"NORMAL":1,
						"TEXCOORD_0":2
					},
					"indices":3
				}
			]
		}
	],
	"accessors":[
		{
			"bufferView":0,
			"componentType":5126,
			"count":131839,
			"max":[
				1.000002145767212,
				1,
				1.0000044107437134
			],
			"min":[
				-1.0000066757202148,
				-1,
				-1.0000087022781372
			],
			"type":"VEC3"
		},
		{
			"bufferView":1,
			"componentType":5126,
			"count":131839,
			"type":"VEC3"
		},
		{
			"bufferView":2,
			"componentType":5126,
			"count":131839,
			"type":"VEC2"
		},
		{
			"bufferView":3,
			"componentType":5125,
			"count":783360,
			"type":"SCALAR"
		}
	],
	"bufferViews":[
		{
			"buffer":0,
			"byteLength":1582068,
			"byteOffset":0,
			"target":34962
		},
		{
			"buffer":0,
			"byteLength":1582068,
			"byteOffset":1582068,
			"target":34962
		},
		{
			"buffer":0,
			"byteLength":1054712,
			"byteOffset":3164136,
			"target":34962
		},
		{
			"buffer":0,
			"byteLength":3133440,
			"byteOffset":4218848,
			"target":34963
		}
	],
	"buffers":[
		{
			"byteLength":7352288,
			"uri":"uv-sphere.bin"
		}
	]
}
