{
	"asset":{
		"generator":"Khronos glTF Blender I/O v4.4.56",
		"version":"2.0"
	},
	"scene":0,
	"scenes":[
		{
			"name":"Scene",
			"nodes":[
				0
			]
		}
	],
	"nodes":[
		{
			"mesh":0,
			"name":"Sphere"
		}
	],
	"meshes":[
		{
			"name":"Mesh",
			"primitives":[
				{
					"attributes":{
						"POSITION":0,
						"NORMAL":1,
						"TEXCOORD_0":2
					},
					"indices":3
				}
			]
		}
	],
	"accessors":[
		{
			"bufferView":0,
			"componentType":5126,
			"count":527089,
			"max":[
				0.999196469783783,
				0.999952495098114,
				0.9991964101791382
			],
			"min":[
				-0.9991964101791382,
				-0.9999524354934692,
				-0.9991961121559143
			],
			"type":"VEC3"
		},
		{
			"bufferView":1,
			"componentType":5126,
			"count":527089,
			"type":"VEC3"
		},
		{
			"bufferView":2,
			"componentType":5126,
			"count":527089,
			"type":"VEC2"
		},
		{
			"bufferView":3,
			"componentType":5125,
			"count":3121152,
			"type":"SCALAR"
		}
	],
	"bufferViews":[
		{
			"buffer":0,
			"byteLength":6325068,
			"byteOffset":0,
			"target":34962
		},
		{
			"buffer":0,
			"byteLength":6325068,
			"byteOffset":6325068,
			"target":34962
		},
		{
			"buffer":0,
			"byteLength":4216712,
			"byteOffset":12650136,
			"target":34962
		},
		{
			"buffer":0,
			"byteLength":12484608,
			"byteOffset":16866848,
			"target":34963
		}
	],
	"buffers":[
		{
			"byteLength":29351456,
			"uri":"models/uv-sphere.bin"
		}
	]
}
