{
	"asset":{
		"generator":"Khronos glTF Blender I/O v4.2.69",
		"version":"2.0"
	},
	"scene":0,
	"scenes":[
		{
			"name":"Scene",
			"nodes":[
				0,
				1
			]
		}
	],
	"nodes":[
		{
			"mesh":0,
			"name":"Cylinder",
			"rotation":[
				0,
				0.7071068286895752,
				0,
				0.7071068286895752
			]
		},
		{
			"mesh":1,
			"name":"Cylinder.002",
			"rotation":[
				0,
				0.7071068286895752,
				0,
				0.7071068286895752
			]
		}
	],
	"materials":[
		{
			"doubleSided":true,
			"name":"Material.001",
			"pbrMetallicRoughness":{
				"baseColorFactor":[
					1,
					0.4760151207447052,
					0.7253935933113098,
					1
				],
				"roughnessFactor":0.5430107116699219
			}
		}
	],
	"meshes":[
		{
			"name":"Cylinder",
			"primitives":[
				{
					"attributes":{
						"POSITION":0,
						"NORMAL":1,
						"TEXCOORD_0":2,
						"TANGENT":3
					},
					"indices":4,
					"material":0
				}
			]
		},
		{
			"name":"Cylinder.002",
			"primitives":[
				{
					"attributes":{
						"POSITION":5,
						"NORMAL":6,
						"TEXCOORD_0":7,
						"TANGENT":8
					},
					"indices":9,
					"material":0
				}
			]
		}
	],
	"accessors":[
		{
			"bufferView":0,
			"componentType":5126,
			"count":105168,
			"max":[
				1.2498010396957397,
				0.14562465250492096,
				1.3852750062942505
			],
			"min":[
				-1.2498009204864502,
				-1.1151351928710938,
				-1.3852750062942505
			],
			"type":"VEC3"
		},
		{
			"bufferView":1,
			"componentType":5126,
			"count":105168,
			"type":"VEC3"
		},
		{
			"bufferView":2,
			"componentType":5126,
			"count":105168,
			"type":"VEC2"
		},
		{
			"bufferView":3,
			"componentType":5126,
			"count":105168,
			"type":"VEC4"
		},
		{
			"bufferView":4,
			"componentType":5125,
			"count":626688,
			"type":"SCALAR"
		},
		{
			"bufferView":5,
			"componentType":5126,
			"count":48216,
			"max":[
				0.8424975872039795,
				-0.07992229610681534,
				0.8424973487854004
			],
			"min":[
				-0.8424972891807556,
				-0.4814828634262085,
				-0.8424972295761108
			],
			"type":"VEC3"
		},
		{
			"bufferView":6,
			"componentType":5126,
			"count":48216,
			"type":"VEC3"
		},
		{
			"bufferView":7,
			"componentType":5126,
			"count":48216,
			"type":"VEC2"
		},
		{
			"bufferView":8,
			"componentType":5126,
			"count":48216,
			"type":"VEC4"
		},
		{
			"bufferView":9,
			"componentType":5123,
			"count":276480,
			"type":"SCALAR"
		}
	],
	"bufferViews":[
		{
			"buffer":0,
			"byteLength":1262016,
			"byteOffset":0,
			"target":34962
		},
		{
			"buffer":0,
			"byteLength":1262016,
			"byteOffset":1262016,
			"target":34962
		},
		{
			"buffer":0,
			"byteLength":841344,
			"byteOffset":2524032,
			"target":34962
		},
		{
			"buffer":0,
			"byteLength":1682688,
			"byteOffset":3365376,
			"target":34962
		},
		{
			"buffer":0,
			"byteLength":2506752,
			"byteOffset":5048064,
			"target":34963
		},
		{
			"buffer":0,
			"byteLength":578592,
			"byteOffset":7554816,
			"target":34962
		},
		{
			"buffer":0,
			"byteLength":578592,
			"byteOffset":8133408,
			"target":34962
		},
		{
			"buffer":0,
			"byteLength":385728,
			"byteOffset":8712000,
			"target":34962
		},
		{
			"buffer":0,
			"byteLength":771456,
			"byteOffset":9097728,
			"target":34962
		},
		{
			"buffer":0,
			"byteLength":552960,
			"byteOffset":9869184,
			"target":34963
		}
	],
	"buffers":[
		{
			"byteLength":10422144,
			"uri":"flower88.2.bin"
		}
	]
}
