{
	"asset":{
		"generator":"Khronos glTF Blender I/O v4.2.69",
		"version":"2.0"
	},
	"scene":0,
	"scenes":[
		{
			"name":"Scene",
			"nodes":[
				0,
				1,
				2
			]
		}
	],
	"nodes":[
		{
			"name":"Circle"
		},
		{
			"mesh":0,
			"name":"Cylinder",
			"rotation":[
				0,
				0.7071068286895752,
				0,
				0.7071068286895752
			]
		},
		{
			"mesh":1,
			"name":"Cylinder.002",
			"rotation":[
				0,
				0.7071068286895752,
				0,
				0.7071068286895752
			]
		}
	],
	"materials":[
		{
			"doubleSided":true,
			"name":"Material.002",
			"pbrMetallicRoughness":{
				"baseColorFactor":[
					0.4206988215446472,
					0.44279804825782776,
					0.4793359339237213,
					1
				],
				"metallicFactor":0.9032257795333862,
				"roughnessFactor":0.5322580337524414
			}
		},
		{
			"doubleSided":true,
			"name":"outside",
			"pbrMetallicRoughness":{
				"baseColorFactor":[
					0.4793359339237213,
					0.2083132266998291,
					0.47789520025253296,
					1
				],
				"roughnessFactor":0.26881715655326843
			}
		},
		{
			"doubleSided":true,
			"name":"top",
			"pbrMetallicRoughness":{
				"baseColorFactor":[
					0.18867933750152588,
					0.18867933750152588,
					0.18867933750152588,
					1
				],
				"metallicFactor":0.8924731016159058,
				"roughnessFactor":0.5
			}
		},
		{
			"doubleSided":true,
			"name":"Material.003",
			"pbrMetallicRoughness":{
				"baseColorFactor":[
					0.11113493144512177,
					0.00042707769898697734,
					0.8005679845809937,
					1
				],
				"metallicFactor":0,
				"roughnessFactor":0.5440000295639038
			}
		}
	],
	"meshes":[
		{
			"name":"Cylinder",
			"primitives":[
				{
					"attributes":{
						"POSITION":0,
						"NORMAL":1,
						"TEXCOORD_0":2,
						"TANGENT":3
					},
					"indices":4,
					"material":0
				},
				{
					"attributes":{
						"POSITION":5,
						"NORMAL":6,
						"TEXCOORD_0":7,
						"TANGENT":8
					},
					"indices":9,
					"material":1
				},
				{
					"attributes":{
						"POSITION":10,
						"NORMAL":11,
						"TEXCOORD_0":12,
						"TANGENT":13
					},
					"indices":14,
					"material":2
				},
				{
					"attributes":{
						"POSITION":15,
						"NORMAL":16,
						"TEXCOORD_0":17,
						"TANGENT":18
					},
					"indices":19,
					"material":3
				}
			]
		},
		{
			"name":"Cylinder.002",
			"primitives":[
				{
					"attributes":{
						"POSITION":20,
						"NORMAL":21,
						"TEXCOORD_0":22,
						"TANGENT":23
					},
					"indices":24,
					"material":1
				}
			]
		}
	],
	"accessors":[
		{
			"bufferView":0,
			"componentType":5126,
			"count":80976,
			"max":[
				1.2498010396957397,
				0.14562465250492096,
				1.3852750062942505
			],
			"min":[
				-1.2498009204864502,
				-1.1151351928710938,
				-1.3852750062942505
			],
			"type":"VEC3"
		},
		{
			"bufferView":1,
			"componentType":5126,
			"count":80976,
			"type":"VEC3"
		},
		{
			"bufferView":2,
			"componentType":5126,
			"count":80976,
			"type":"VEC2"
		},
		{
			"bufferView":3,
			"componentType":5126,
			"count":80976,
			"type":"VEC4"
		},
		{
			"bufferView":4,
			"componentType":5125,
			"count":480384,
			"type":"SCALAR"
		},
		{
			"bufferView":5,
			"componentType":5126,
			"count":11328,
			"max":[
				0.8907922506332397,
				-0.0933428481221199,
				0.8889448046684265
			],
			"min":[
				-0.890792191028595,
				-0.48561763763427734,
				-0.888944685459137
			],
			"type":"VEC3"
		},
		{
			"bufferView":6,
			"componentType":5126,
			"count":11328,
			"type":"VEC3"
		},
		{
			"bufferView":7,
			"componentType":5126,
			"count":11328,
			"type":"VEC2"
		},
		{
			"bufferView":8,
			"componentType":5126,
			"count":11328,
			"type":"VEC4"
		},
		{
			"bufferView":9,
			"componentType":5123,
			"count":64512,
			"type":"SCALAR"
		},
		{
			"bufferView":10,
			"componentType":5126,
			"count":1776,
			"max":[
				0.26089248061180115,
				-0.18517792224884033,
				0.25031861662864685
			],
			"min":[
				-0.26089245080947876,
				-0.1994887739419937,
				-0.2503185570240021
			],
			"type":"VEC3"
		},
		{
			"bufferView":11,
			"componentType":5126,
			"count":1776,
			"type":"VEC3"
		},
		{
			"bufferView":12,
			"componentType":5126,
			"count":1776,
			"type":"VEC2"
		},
		{
			"bufferView":13,
			"componentType":5126,
			"count":1776,
			"type":"VEC4"
		},
		{
			"bufferView":14,
			"componentType":5123,
			"count":9216,
			"type":"SCALAR"
		},
		{
			"bufferView":15,
			"componentType":5126,
			"count":12720,
			"max":[
				0.9398784041404724,
				-0.01697470247745514,
				0.9385034441947937
			],
			"min":[
				-0.9398782849311829,
				-0.1903458833694458,
				-0.9385034441947937
			],
			"type":"VEC3"
		},
		{
			"bufferView":16,
			"componentType":5126,
			"count":12720,
			"type":"VEC3"
		},
		{
			"bufferView":17,
			"componentType":5126,
			"count":12720,
			"type":"VEC2"
		},
		{
			"bufferView":18,
			"componentType":5126,
			"count":12720,
			"type":"VEC4"
		},
		{
			"bufferView":19,
			"componentType":5123,
			"count":72576,
			"type":"SCALAR"
		},
		{
			"bufferView":20,
			"componentType":5126,
			"count":54168,
			"max":[
				0.8701120615005493,
				-0.09166096150875092,
				0.8701118230819702
			],
			"min":[
				-0.8701117038726807,
				-0.4814828634262085,
				-0.8701115846633911
			],
			"type":"VEC3"
		},
		{
			"bufferView":21,
			"componentType":5126,
			"count":54168,
			"type":"VEC3"
		},
		{
			"bufferView":22,
			"componentType":5126,
			"count":54168,
			"type":"VEC2"
		},
		{
			"bufferView":23,
			"componentType":5126,
			"count":54168,
			"type":"VEC4"
		},
		{
			"bufferView":24,
			"componentType":5123,
			"count":313344,
			"type":"SCALAR"
		}
	],
	"bufferViews":[
		{
			"buffer":0,
			"byteLength":971712,
			"byteOffset":0,
			"target":34962
		},
		{
			"buffer":0,
			"byteLength":971712,
			"byteOffset":971712,
			"target":34962
		},
		{
			"buffer":0,
			"byteLength":647808,
			"byteOffset":1943424,
			"target":34962
		},
		{
			"buffer":0,
			"byteLength":1295616,
			"byteOffset":2591232,
			"target":34962
		},
		{
			"buffer":0,
			"byteLength":1921536,
			"byteOffset":3886848,
			"target":34963
		},
		{
			"buffer":0,
			"byteLength":135936,
			"byteOffset":5808384,
			"target":34962
		},
		{
			"buffer":0,
			"byteLength":135936,
			"byteOffset":5944320,
			"target":34962
		},
		{
			"buffer":0,
			"byteLength":90624,
			"byteOffset":6080256,
			"target":34962
		},
		{
			"buffer":0,
			"byteLength":181248,
			"byteOffset":6170880,
			"target":34962
		},
		{
			"buffer":0,
			"byteLength":129024,
			"byteOffset":6352128,
			"target":34963
		},
		{
			"buffer":0,
			"byteLength":21312,
			"byteOffset":6481152,
			"target":34962
		},
		{
			"buffer":0,
			"byteLength":21312,
			"byteOffset":6502464,
			"target":34962
		},
		{
			"buffer":0,
			"byteLength":14208,
			"byteOffset":6523776,
			"target":34962
		},
		{
			"buffer":0,
			"byteLength":28416,
			"byteOffset":6537984,
			"target":34962
		},
		{
			"buffer":0,
			"byteLength":18432,
			"byteOffset":6566400,
			"target":34963
		},
		{
			"buffer":0,
			"byteLength":152640,
			"byteOffset":6584832,
			"target":34962
		},
		{
			"buffer":0,
			"byteLength":152640,
			"byteOffset":6737472,
			"target":34962
		},
		{
			"buffer":0,
			"byteLength":101760,
			"byteOffset":6890112,
			"target":34962
		},
		{
			"buffer":0,
			"byteLength":203520,
			"byteOffset":6991872,
			"target":34962
		},
		{
			"buffer":0,
			"byteLength":145152,
			"byteOffset":7195392,
			"target":34963
		},
		{
			"buffer":0,
			"byteLength":650016,
			"byteOffset":7340544,
			"target":34962
		},
		{
			"buffer":0,
			"byteLength":650016,
			"byteOffset":7990560,
			"target":34962
		},
		{
			"buffer":0,
			"byteLength":433344,
			"byteOffset":8640576,
			"target":34962
		},
		{
			"buffer":0,
			"byteLength":866688,
			"byteOffset":9073920,
			"target":34962
		},
		{
			"buffer":0,
			"byteLength":626688,
			"byteOffset":9940608,
			"target":34963
		}
	],
	"buffers":[
		{
			"byteLength":10567296,
			"uri":"flower88.2.bin"
		}
	]
}
