{
	"asset":{
		"generator":"Khronos glTF Blender I/O v4.2.69",
		"version":"2.0"
	},
	"scene":0,
	"scenes":[
		{
			"name":"Scene",
			"nodes":[
				3
			]
		}
	],
	"nodes":[
		{
			"name":"Root",
			"rotation":[
				-0.7071067690849304,
				0,
				0,
				0.7071067690849304
			]
		},
		{
			"name":"Hinge"
		},
		{
			"mesh":0,
			"name":"Cube",
			"skin":0
		},
		{
			"children":[
				2,
				0,
				1
			],
			"name":"Armature.001",
			"translation":[
				0,
				-0.7038524746894836,
				0.9983899593353271
			]
		}
	],
	"materials":[
		{
			"doubleSided":true,
			"name":"top",
			"pbrMetallicRoughness":{
				"baseColorFactor":[
					0.8002749681472778,
					0.4259181320667267,
					0.03717940300703049,
					1
				],
				"metallicFactor":0,
				"roughnessFactor":0.5
			}
		}
	],
	"meshes":[
		{
			"name":"Cube",
			"primitives":[
				{
					"attributes":{
						"POSITION":0,
						"NORMAL":1,
						"TEXCOORD_0":2,
						"TANGENT":3,
						"COLOR_0":4,
						"COLOR_1":5,
						"JOINTS_0":6,
						"WEIGHTS_0":7
					},
					"indices":8,
					"material":0
				}
			]
		}
	],
	"skins":[
		{
			"inverseBindMatrices":9,
			"joints":[
				0,
				1
			],
			"name":"Armature.001"
		}
	],
	"accessors":[
		{
			"bufferView":0,
			"componentType":5126,
			"count":48,
			"max":[
				1,
				1.3241760730743408,
				1
			],
			"min":[
				-1,
				-1,
				-1
			],
			"type":"VEC3"
		},
		{
			"bufferView":1,
			"componentType":5126,
			"count":48,
			"type":"VEC3"
		},
		{
			"bufferView":2,
			"componentType":5126,
			"count":48,
			"type":"VEC2"
		},
		{
			"bufferView":3,
			"componentType":5126,
			"count":48,
			"type":"VEC4"
		},
		{
			"bufferView":4,
			"componentType":5121,
			"count":48,
			"normalized":true,
			"type":"VEC4"
		},
		{
			"bufferView":5,
			"componentType":5126,
			"count":48,
			"type":"VEC3"
		},
		{
			"bufferView":6,
			"componentType":5121,
			"count":48,
			"type":"VEC4"
		},
		{
			"bufferView":7,
			"componentType":5126,
			"count":48,
			"type":"VEC4"
		},
		{
			"bufferView":8,
			"componentType":5123,
			"count":72,
			"type":"SCALAR"
		},
		{
			"bufferView":9,
			"componentType":5126,
			"count":2,
			"type":"MAT4"
		}
	],
	"bufferViews":[
		{
			"buffer":0,
			"byteLength":576,
			"byteOffset":0,
			"target":34962
		},
		{
			"buffer":0,
			"byteLength":576,
			"byteOffset":576,
			"target":34962
		},
		{
			"buffer":0,
			"byteLength":384,
			"byteOffset":1152,
			"target":34962
		},
		{
			"buffer":0,
			"byteLength":768,
			"byteOffset":1536,
			"target":34962
		},
		{
			"buffer":0,
			"byteLength":192,
			"byteOffset":2304,
			"target":34962
		},
		{
			"buffer":0,
			"byteLength":576,
			"byteOffset":2496,
			"target":34962
		},
		{
			"buffer":0,
			"byteLength":192,
			"byteOffset":3072,
			"target":34962
		},
		{
			"buffer":0,
			"byteLength":768,
			"byteOffset":3264,
			"target":34962
		},
		{
			"buffer":0,
			"byteLength":144,
			"byteOffset":4032,
			"target":34963
		},
		{
			"buffer":0,
			"byteLength":128,
			"byteOffset":4176
		}
	],
	"buffers":[
		{
			"byteLength":4304,
			"uri":"hinge.bin"
		}
	]
}
