<?xml version="1.0" encoding="UTF-8" standalone="no"?>
<!-- Created with Inkscape (http://www.inkscape.org/) -->

<svg
   width="32"
   height="32"
   viewBox="0 0 8.4666665 8.4666666"
   version="1.1"
   id="svg1"
   inkscape:version="1.4.2 (ebf0e940d0, 2025-05-08)"
   sodipodi:docname="orbiter.svg"
   inkscape:export-filename="orbiter.png"
   inkscape:export-xdpi="192"
   inkscape:export-ydpi="192"
   xmlns:inkscape="http://www.inkscape.org/namespaces/inkscape"
   xmlns:sodipodi="http://sodipodi.sourceforge.net/DTD/sodipodi-0.dtd"
   xmlns:xlink="http://www.w3.org/1999/xlink"
   xmlns="http://www.w3.org/2000/svg"
   xmlns:svg="http://www.w3.org/2000/svg">
  <sodipodi:namedview
     id="namedview1"
     pagecolor="#303030"
     bordercolor="#000000"
     borderopacity="0.25"
     inkscape:showpageshadow="true"
     inkscape:pageopacity="0.0"
     inkscape:pagecheckerboard="0"
     inkscape:deskcolor="#d1d1d1"
     inkscape:document-units="mm"
     showborder="true"
     inkscape:antialias-rendering="true"
     inkscape:zoom="46.765867"
     inkscape:cx="13.706578"
     inkscape:cy="15.631058"
     inkscape:window-width="2560"
     inkscape:window-height="1371"
     inkscape:window-x="0"
     inkscape:window-y="0"
     inkscape:window-maximized="1"
     inkscape:current-layer="layer1" />
  <defs
     id="defs1" />
  <g
     inkscape:label="Layer 1"
     inkscape:groupmode="layer"
     id="layer1">
    <path
       style="baseline-shift:baseline;display:inline;overflow:visible;opacity:1;vector-effect:none;fill:#ffffff;fill-opacity:1;enable-background:accumulate;stop-color:#000000;stop-opacity:1"
       sodipodi:type="inkscape:offset"
       inkscape:radius="0.1249619"
       inkscape:original="M 2.7167969 1.4550781 L 1.0585938 4.328125 L 2.7167969 7.203125 L 6.0351562 7.203125 L 7.6953125 4.328125 L 6.0351562 1.4550781 L 2.7167969 1.4550781 z M 2.7539062 1.5195312 L 5.9980469 1.5195312 L 7.6191406 4.328125 L 5.9980469 7.1367188 L 2.7558594 7.1367188 L 1.1328125 4.328125 L 2.7539062 1.5195312 z "
       xlink:href="#path1"
       id="path15"
       d="m 2.7167969,1.3300781 a 0.12497439,0.12497439 0 0 0 -0.1074219,0.0625 L 0.95117188,4.265625 a 0.12497439,0.12497439 0 0 0 0,0.125 l 1.65820312,2.875 a 0.12497439,0.12497439 0 0 0 0.1074219,0.0625 h 3.3183593 a 0.12497439,0.12497439 0 0 0 0.1074219,-0.0625 l 1.6601563,-2.875 a 0.12497439,0.12497439 0 0 0 0,-0.125 L 6.1425781,1.3925781 a 0.12497439,0.12497439 0 0 0 -0.1074219,-0.0625 z m 0.109375,0.3144531 H 5.9257812 L 7.4746094,4.328125 5.9257812,7.0117187 H 2.828125 L 1.2773437,4.328125 Z" />
    <!-- background -->
    <!-- hexagon -->
    <!-- outer ring -->
    <!-- inner ring -->
    <!-- sun rays -->
    <!-- sun core -->
    <g
       id="g1"
       transform="matrix(1.3143354,0,0,1.3143354,-1.3756816,-1.3606561)">
      <circle
         style="fill:#ffffff;fill-opacity:1;stroke:none;stroke-width:0.598813;stroke-dasharray:0.299407;stroke-dashoffset:0;stroke-opacity:1"
         id="path2"
         cx="4.376471"
         cy="4.3286762"
         r="0.48655498" />
      <g
         transform="matrix(0.01263957,3.6426614e-5,-3.6426614e-5,0.01263957,1.1500651,1.0836235)"
         id="g14">
        <!-- repeat 12 rays -->
        <g
           id="g2">
          <path
             style="fill:#ffffff;fill-opacity:1;stroke-width:103.88;stroke-dasharray:none"
             sodipodi:type="inkscape:offset"
             inkscape:radius="3.0819387"
             inkscape:original="M 258.00977 169.98242 L 253.99414 170 L 253.99219 200.00977 L 258.00781 199.99219 L 258.00977 169.98242 z M 214.73828 180.51953 L 211.25195 182.51172 L 226.25781 208.5 L 229.74414 206.50781 L 214.73828 180.51953 z M 297.28125 180.53906 L 282.26758 206.48633 L 285.73242 208.52148 L 300.73633 182.5332 L 297.28125 180.53906 z M 329.47461 211.27539 L 303.48633 226.28125 L 305.50781 229.71875 L 331.45703 214.72461 L 329.47461 211.27539 z M 182.51953 211.28906 L 180.52539 214.74414 L 206.51172 229.74805 L 208.49609 226.25391 L 182.51953 211.28906 z M 170.00781 254.00586 L 170.01562 257.98242 L 199.98633 257.99414 L 200.01758 254.00586 L 170.00781 254.00586 z M 312.01562 254.00586 L 311.98242 257.99414 L 341.99219 257.99414 L 341.98633 254.01758 L 312.01562 254.00586 z M 305.48828 282.25195 L 303.50391 285.74609 L 329.48047 300.71094 L 331.47656 297.25586 L 305.48828 282.25195 z M 206.49414 282.28125 L 180.54492 297.27539 L 182.52734 300.72266 L 208.51562 285.7168 L 206.49414 282.28125 z M 226.26953 303.47852 L 211.26367 329.4668 L 214.71875 331.46094 L 229.73438 305.51367 L 226.26953 303.47852 z M 285.74414 303.5 L 282.25586 305.49219 L 297.26172 331.48047 L 300.75 329.48828 L 285.74414 303.5 z M 258.00781 311.98828 L 253.99219 312.00781 L 253.99219 342.01758 L 258.00781 342 L 258.00781 311.98828 z "
             xlink:href="#rect2"
             id="path16"
             inkscape:href="#rect2"
             d="m 257.99609,166.90039 -4.01562,0.0176 A 3.0822469,3.0822469 0 0 0 250.91211,170 l -0.002,30.00977 a 3.0822469,3.0822469 0 0 0 3.0957,3.08203 l 4.01562,-0.0176 a 3.0822469,3.0822469 0 0 0 3.06836,-3.08203 l 0.002,-30.00977 a 3.0822469,3.0822469 0 0 0 -3.09571,-3.08203 z m -44.78711,10.94336 -3.48632,1.99219 a 3.0822469,3.0822469 0 0 0 -1.14063,4.21679 l 15.00586,25.98829 a 3.0822469,3.0822469 0 0 0 4.19922,1.13476 l 3.48633,-1.99219 a 3.0822469,3.0822469 0 0 0 1.14062,-4.21679 L 217.4082,178.97852 a 3.0822469,3.0822469 0 0 0 -4.19922,-1.13477 z m 85.61329,0.0254 a 3.0822469,3.0822469 0 0 0 -4.20899,1.12695 l -15.01367,25.94727 a 3.0822469,3.0822469 0 0 0 1.10742,4.20117 l 3.46484,2.03516 a 3.0822469,3.0822469 0 0 0 4.23047,-1.11719 l 15.00391,-25.98828 a 3.0822469,3.0822469 0 0 0 -1.12891,-4.21094 z m 31.45312,30.42969 a 3.0822469,3.0822469 0 0 0 -2.3418,0.30664 l -25.98828,15.00586 a 3.0822469,3.0822469 0 0 0 -1.11523,4.23242 l 2.02148,3.4375 a 3.0822469,3.0822469 0 0 0 4.19727,1.10547 l 25.94922,-14.99414 a 3.0822469,3.0822469 0 0 0 1.13086,-4.20313 l -1.98243,-3.44922 a 3.0822469,3.0822469 0 0 0 -1.87109,-1.4414 z m -146.2168,0.32031 a 3.0822469,3.0822469 0 0 0 -4.20898,1.12891 l -1.99414,3.45507 a 3.0822469,3.0822469 0 0 0 1.1289,4.21094 l 25.98633,15.00391 a 3.0822469,3.0822469 0 0 0 4.22071,-1.14844 l 1.98437,-3.49414 a 3.0822469,3.0822469 0 0 0 -1.14062,-4.19141 z m -14.05078,42.30469 a 3.0822469,3.0822469 0 0 0 -3.08203,3.08789 l 0.008,3.97656 a 3.0822469,3.0822469 0 0 0 3.08008,3.07617 l 29.9707,0.0117 a 3.0822469,3.0822469 0 0 0 3.08399,-3.05859 l 0.0312,-3.98828 a 3.0822469,3.0822469 0 0 0 -3.08203,-3.10547 z m 142.00977,0 a 3.0822469,3.0822469 0 0 0 -3.08399,3.05664 l -0.0332,3.98828 a 3.0822469,3.0822469 0 0 0 3.08203,3.10742 h 30.00977 a 3.0822469,3.0822469 0 0 0 3.08203,-3.08594 l -0.006,-3.97656 a 3.0822469,3.0822469 0 0 0 -3.08008,-3.07812 z m -7.33789,28.35351 a 3.0822469,3.0822469 0 0 0 -1.8711,1.45313 l -1.98437,3.49414 a 3.0822469,3.0822469 0 0 0 1.14062,4.19141 l 25.97657,14.96484 a 3.0822469,3.0822469 0 0 0 4.20703,-1.12891 l 1.99609,-3.45508 a 3.0822469,3.0822469 0 0 0 -1.12695,-4.21093 L 307.0293,279.58203 a 3.0822469,3.0822469 0 0 0 -2.34961,-0.30469 z m -99.72657,0.33594 -25.94921,14.99414 a 3.0822469,3.0822469 0 0 0 -1.13086,4.20508 l 1.98242,3.44727 a 3.0822469,3.0822469 0 0 0 4.21289,1.13281 l 25.98828,-15.00586 a 3.0822469,3.0822469 0 0 0 1.11523,-4.23242 l -2.02148,-3.43555 a 3.0822469,3.0822469 0 0 0 -4.19727,-1.10547 z m 20.5293,20.88477 a 3.0822469,3.0822469 0 0 0 -1.88281,1.43945 l -15.00586,25.98828 a 3.0822469,3.0822469 0 0 0 1.12891,4.21094 l 3.45507,1.99414 a 3.0822469,3.0822469 0 0 0 4.20899,-1.12695 l 15.01562,-25.94727 a 3.0822469,3.0822469 0 0 0 -1.10742,-4.20117 l -3.46484,-2.03516 a 3.0822469,3.0822469 0 0 0 -2.34766,-0.32226 z m 58.73242,0.32617 -3.48828,1.99219 a 3.0822469,3.0822469 0 0 0 -1.14062,4.21679 l 15.00586,25.98828 a 3.0822469,3.0822469 0 0 0 4.19922,1.13477 l 3.48828,-1.99219 a 3.0822469,3.0822469 0 0 0 1.14062,-4.21679 l -15.00586,-25.98829 a 3.0822469,3.0822469 0 0 0 -4.19922,-1.13476 z m -26.22265,8.08203 -4.01563,0.0195 a 3.0822469,3.0822469 0 0 0 -3.0664,3.08203 v 30.00977 a 3.0822469,3.0822469 0 0 0 3.0957,3.08203 l 4.01562,-0.0176 A 3.0822469,3.0822469 0 0 0 261.08984,342 v -30.01172 a 3.0822469,3.0822469 0 0 0 -3.09765,-3.08203 z" />
          <path
             id="rect2"
             style="fill:#ffffff;fill-opacity:1;stroke-width:103.88;stroke-dasharray:none"
             d="m 214.73899,180.5189 -3.48714,1.99255 15.00578,25.98885 3.48713,-1.99255 z m 39.2544,-10.5182 -9.3e-4,30.00989 4.01622,-0.018 9.4e-4,-30.0099 z m -71.47391,41.28828 -1.99477,3.45504 25.98791,15.00411 1.98418,-3.49453 z m 114.76187,-30.7504 -15.01469,25.94842 3.46562,2.03426 15.00411,-25.98791 z m -127.27301,73.46659 0.007,3.97673 29.9704,0.0115 0.0321,-3.98731 z m 159.46609,-42.72886 -25.98885,15.00577 2.02146,3.43707 25.94936,-14.9952 z m -122.98055,71.0043 -25.94936,14.99519 1.98196,3.44765 25.98885,-15.00578 z m 105.5209,-28.27428 -0.0321,3.98731 30.00989,9.4e-4 -0.007,-3.97673 z m -85.74614,49.47216 -15.00412,25.98792 3.45504,1.99476 15.0147,-25.94842 z m 79.21966,-21.22687 -1.98419,3.49453 25.97733,14.96463 1.99477,-3.45504 z m -51.49606,29.75552 -9.4e-4,30.00989 4.01622,-0.018 9.4e-4,-30.00989 z m 31.75105,-8.50768 -3.48714,1.99254 15.00578,25.98885 3.48714,-1.99254 z"
             sodipodi:nodetypes="cccccccccccccccccccccccccccccccccccccccccccccccccccccccccccc" />
        </g>
        <g
           transform="rotate(30,256,256)"
           id="g3" />
        <g
           transform="rotate(60,256,256)"
           id="g4" />
        <g
           transform="rotate(90,256,256)"
           id="g5" />
        <g
           transform="rotate(120,256,256)"
           id="g6" />
        <g
           transform="rotate(150,256,256)"
           id="g7" />
        <g
           transform="rotate(180,256,256)"
           id="g8" />
        <g
           transform="rotate(-150,256,256)"
           id="g9" />
        <g
           transform="rotate(-120,256,256)"
           id="g10" />
        <g
           transform="rotate(-90,256,256)"
           id="g11" />
        <g
           transform="rotate(-60,256,256)"
           id="g12" />
        <g
           transform="rotate(-30,256,256)"
           id="g13" />
      </g>
      <path
         id="path3"
         style="fill:none;fill-opacity:1;stroke:#ffffff;stroke-width:0.14;stroke-dasharray:none;stroke-opacity:1"
         d="M 4.376471,3.6162825 C 4.7698233,3.61632 5.088689,3.9351857 5.0887265,4.328538 5.0888418,4.7219984 4.7699314,5.0410328 4.376471,5.0410703 3.9830106,5.0410328 3.6641001,4.7219984 3.6642155,4.328538 3.664253,3.9351857 3.9831187,3.61632 4.376471,3.6162825 Z"
         sodipodi:nodetypes="ccccc" />
      <path
         id="path4"
         style="fill:none;fill-opacity:1;stroke:#ffffff;stroke-width:0.22;stroke-dasharray:none;stroke-opacity:1"
         d="m 1.2880611,-0.68171233 c 0.7343079,7.007e-5 1.3295645,0.59532671 1.3296346,1.3296346 C 2.617911,1.3824319 2.0225708,1.9780035 1.2880611,1.9780736 c -0.73450972,-7e-5 -1.32984998,-0.5956416 -1.32963465,-1.33015133 7.007e-5,-0.73430791 0.59532674,-1.32956456 1.32963465,-1.3296346 z"
         transform="translate(3.088416,3.6804957)"
         sodipodi:nodetypes="ccccc" />
    </g>
  </g>
</svg>
