<?xml version="1.0" encoding="UTF-8" standalone="no"?>
<!-- Created with Inkscape (http://www.inkscape.org/) -->

<svg
   width="32"
   height="32"
   viewBox="0 0 8.4666665 8.4666666"
   version="1.1"
   id="svg1"
   inkscape:version="1.4.2 (ebf0e940d0, 2025-05-08)"
   sodipodi:docname="orbiter.svg"
   xmlns:inkscape="http://www.inkscape.org/namespaces/inkscape"
   xmlns:sodipodi="http://sodipodi.sourceforge.net/DTD/sodipodi-0.dtd"
   xmlns:xlink="http://www.w3.org/1999/xlink"
   xmlns="http://www.w3.org/2000/svg"
   xmlns:svg="http://www.w3.org/2000/svg">
  <sodipodi:namedview
     id="namedview1"
     pagecolor="#303030"
     bordercolor="#000000"
     borderopacity="0.25"
     inkscape:showpageshadow="true"
     inkscape:pageopacity="0.0"
     inkscape:pagecheckerboard="0"
     inkscape:deskcolor="#d1d1d1"
     inkscape:document-units="mm"
     showborder="true"
     inkscape:antialias-rendering="true"
     inkscape:zoom="33.068462"
     inkscape:cx="21.984693"
     inkscape:cy="17.47889"
     inkscape:window-width="2560"
     inkscape:window-height="1371"
     inkscape:window-x="0"
     inkscape:window-y="0"
     inkscape:window-maximized="1"
     inkscape:current-layer="layer1" />
  <defs
     id="defs1" />
  <g
     inkscape:label="Layer 1"
     inkscape:groupmode="layer"
     id="layer1">
    <path
       style="baseline-shift:baseline;display:inline;overflow:visible;opacity:1;vector-effect:none;fill:#6a6a6a;enable-background:accumulate;stop-color:#000000;stop-opacity:1"
       sodipodi:type="inkscape:offset"
       inkscape:radius="0.096012957"
       inkscape:original="M 2.7167969 1.4550781 L 1.0585938 4.328125 L 2.7167969 7.203125 L 6.0351562 7.203125 L 7.6953125 4.328125 L 6.0351562 1.4550781 L 2.7167969 1.4550781 z M 2.7539062 1.5195312 L 5.9980469 1.5195312 L 7.6191406 4.328125 L 5.9980469 7.1367188 L 2.7558594 7.1367188 L 1.1328125 4.328125 L 2.7539062 1.5195312 z "
       xlink:href="#path1"
       id="path15"
       inkscape:href="#path1"
       d="M 2.7167969,1.359375 A 0.09602256,0.09602256 0 0 0 2.6328125,1.40625 L 0.97460938,4.2792969 a 0.09602256,0.09602256 0 0 0 0,0.097656 l 1.65820312,2.875 a 0.09602256,0.09602256 0 0 0 0.083984,0.046875 h 3.3183593 a 0.09602256,0.09602256 0 0 0 0.083984,-0.046875 l 1.6601563,-2.875 a 0.09602256,0.09602256 0 0 0 0,-0.097656 L 6.1191406,1.40625 A 0.09602256,0.09602256 0 0 0 6.0351562,1.359375 Z m 0.09375,0.2558594 H 5.9433594 L 7.5078125,4.328125 5.9433594,7.0410156 H 2.8105469 L 1.2441406,4.328125 Z" />
    <path
       style="baseline-shift:baseline;display:inline;overflow:visible;opacity:1;vector-effect:none;fill:#6a6a6a;enable-background:accumulate;stop-color:#000000;stop-opacity:1"
       d="m 2.7167969,1.4550781 -1.6582032,2.8730469 1.6582032,2.875 h 3.3183593 l 1.6601563,-2.875 -1.6601563,-2.8730469 z m 0.037109,0.064453 h 3.244141 L 7.6191406,4.328125 5.9980469,7.1367187 H 2.7558594 L 1.1328125,4.328125 Z"
       id="path1" />
    <circle
       style="fill:#bdbdbd;fill-opacity:1;stroke:none;stroke-width:0.598813;stroke-dasharray:0.299407;stroke-dashoffset:0;stroke-opacity:1"
       id="path2"
       cx="4.376471"
       cy="4.3286762"
       r="0.48655498" />
    <!-- background -->
    <!-- hexagon -->
    <!-- outer ring -->
    <!-- inner ring -->
    <!-- sun rays -->
    <g
       transform="matrix(0.01263957,3.6426614e-5,-3.6426614e-5,0.01263957,1.1500651,1.0836235)"
       id="g14">
      <!-- repeat 12 rays -->
      <g
         id="g2">
        <path
           style="fill:#919191;fill-opacity:1;stroke-width:103.88;stroke-dasharray:none"
           sodipodi:type="inkscape:offset"
           inkscape:radius="1.9252459"
           inkscape:original="M 258.00977 169.98242 L 253.99414 170 L 253.99219 200.00977 L 258.00781 199.99219 L 258.00977 169.98242 z M 214.73828 180.51953 L 211.25195 182.51172 L 226.25781 208.5 L 229.74414 206.50781 L 214.73828 180.51953 z M 297.28125 180.53906 L 282.26758 206.48633 L 285.73242 208.52148 L 300.73633 182.5332 L 297.28125 180.53906 z M 329.47461 211.27539 L 303.48633 226.28125 L 305.50781 229.71875 L 331.45703 214.72461 L 329.47461 211.27539 z M 182.51953 211.28906 L 180.52539 214.74414 L 206.51172 229.74805 L 208.49609 226.25391 L 182.51953 211.28906 z M 170.00781 254.00586 L 170.01562 257.98242 L 199.98633 257.99414 L 200.01758 254.00586 L 170.00781 254.00586 z M 312.01562 254.00586 L 311.98242 257.99414 L 341.99219 257.99414 L 341.98633 254.01758 L 312.01562 254.00586 z M 305.48828 282.25195 L 303.50391 285.74609 L 329.48047 300.71094 L 331.47656 297.25586 L 305.48828 282.25195 z M 206.49414 282.28125 L 180.54492 297.27539 L 182.52734 300.72266 L 208.51562 285.7168 L 206.49414 282.28125 z M 226.26953 303.47852 L 211.26367 329.4668 L 214.71875 331.46094 L 229.73438 305.51367 L 226.26953 303.47852 z M 285.74414 303.5 L 282.25586 305.49219 L 297.26172 331.48047 L 300.75 329.48828 L 285.74414 303.5 z M 258.00781 311.98828 L 253.99219 312.00781 L 253.99219 342.01758 L 258.00781 342 L 258.00781 311.98828 z "
           xlink:href="#rect2"
           id="path16"
           inkscape:href="#rect2"
           d="m 258.00195,168.05664 -4.01562,0.0176 A 1.9254384,1.9254384 0 0 0 252.06836,170 l -0.002,30.00977 A 1.9254384,1.9254384 0 0 0 254,201.93555 l 4.01562,-0.0176 a 1.9254384,1.9254384 0 0 0 1.91797,-1.92578 l 0.002,-30.00977 a 1.9254384,1.9254384 0 0 0 -1.9336,-1.92578 z m -44.21875,10.79102 -3.48633,1.99218 a 1.9254384,1.9254384 0 0 0 -0.71289,2.63477 l 15.00586,25.98828 a 1.9254384,1.9254384 0 0 0 2.62305,0.70898 l 3.48633,-1.99218 a 1.9254384,1.9254384 0 0 0 0.71289,-2.63477 l -15.00586,-25.98828 a 1.9254384,1.9254384 0 0 0 -2.62305,-0.70898 z m 84.46094,0.0234 a 1.9254384,1.9254384 0 0 0 -2.62891,0.70313 l -15.01367,25.94726 a 1.9254384,1.9254384 0 0 0 0.69141,2.625 l 3.46484,2.03516 a 1.9254384,1.9254384 0 0 0 2.64258,-0.69727 l 15.00391,-25.98828 a 1.9254384,1.9254384 0 0 0 -0.70508,-2.63086 z m 31.73047,30.54493 a 1.9254384,1.9254384 0 0 0 -1.46289,0.1914 l -25.98828,15.00586 a 1.9254384,1.9254384 0 0 0 -0.69727,2.64453 l 2.02149,3.4375 a 1.9254384,1.9254384 0 0 0 2.62304,0.68946 l 25.94922,-14.99415 a 1.9254384,1.9254384 0 0 0 0.70703,-2.625 l -1.98242,-3.44921 a 1.9254384,1.9254384 0 0 0 -1.16992,-0.90039 z m -146.49414,0.20507 a 1.9254384,1.9254384 0 0 0 -2.62891,0.70508 l -1.99414,3.45508 a 1.9254384,1.9254384 0 0 0 0.70508,2.63086 l 25.98633,15.00391 a 1.9254384,1.9254384 0 0 0 2.63672,-0.7168 l 1.98437,-3.49414 a 1.9254384,1.9254384 0 0 0 -0.71289,-2.61914 z m -13.47266,42.45899 a 1.9254384,1.9254384 0 0 0 -1.92578,1.92969 l 0.008,3.97656 a 1.9254384,1.9254384 0 0 0 1.92578,1.92187 l 29.97071,0.0117 a 1.9254384,1.9254384 0 0 0 1.92578,-1.91015 l 0.0312,-3.98829 a 1.9254384,1.9254384 0 0 0 -1.92578,-1.9414 z m 142.00781,0 a 1.9254384,1.9254384 0 0 0 -1.92578,1.91015 l -0.0332,3.98829 a 1.9254384,1.9254384 0 0 0 1.92578,1.9414 h 30.00977 a 1.9254384,1.9254384 0 0 0 1.92578,-1.92773 l -0.006,-3.97657 a 1.9254384,1.9254384 0 0 0 -1.92578,-1.92382 z m -7.0332,28.31445 a 1.9254384,1.9254384 0 0 0 -1.16797,0.90625 l -1.98437,3.49414 a 1.9254384,1.9254384 0 0 0 0.71289,2.61914 l 25.97656,14.96485 a 1.9254384,1.9254384 0 0 0 2.62891,-0.70508 l 1.99609,-3.45508 a 1.9254384,1.9254384 0 0 0 -0.70508,-2.63086 l -25.98828,-15.00391 a 1.9254384,1.9254384 0 0 0 -1.46875,-0.18945 z m -99.45117,0.2207 -25.94922,14.99414 a 1.9254384,1.9254384 0 0 0 -0.70703,2.625 l 1.98242,3.44727 a 1.9254384,1.9254384 0 0 0 2.63281,0.70898 l 25.98829,-15.00585 a 1.9254384,1.9254384 0 0 0 0.69726,-2.64454 l -2.02148,-3.43554 a 1.9254384,1.9254384 0 0 0 -2.62305,-0.68946 z m 20.24609,21.00196 a 1.9254384,1.9254384 0 0 0 -1.17578,0.89843 l -15.00586,25.98829 a 1.9254384,1.9254384 0 0 0 0.70508,2.63086 l 3.45508,1.99414 a 1.9254384,1.9254384 0 0 0 2.62891,-0.70313 l 15.01562,-25.94726 a 1.9254384,1.9254384 0 0 0 -0.69141,-2.625 l -3.46484,-2.03516 a 1.9254384,1.9254384 0 0 0 -1.4668,-0.20117 z m 59.01172,0.21093 -3.48828,1.99219 a 1.9254384,1.9254384 0 0 0 -0.71289,2.63477 l 15.00586,25.98828 a 1.9254384,1.9254384 0 0 0 2.62305,0.70898 l 3.48828,-1.99218 a 1.9254384,1.9254384 0 0 0 0.71289,-2.63477 l -15.00586,-25.98828 a 1.9254384,1.9254384 0 0 0 -2.62305,-0.70899 z m -26.79101,8.23438 -4.01563,0.0195 a 1.9254384,1.9254384 0 0 0 -1.91601,1.92578 v 30.00977 A 1.9254384,1.9254384 0 0 0 254,343.94336 l 4.01562,-0.0176 A 1.9254384,1.9254384 0 0 0 259.93359,342 v -30.01172 a 1.9254384,1.9254384 0 0 0 -1.93554,-1.92578 z" />
        <path
           id="rect2"
           style="fill:#919191;fill-opacity:1;stroke-width:103.88;stroke-dasharray:none"
           d="m 214.73899,180.5189 -3.48714,1.99255 15.00578,25.98885 3.48713,-1.99255 z m 39.2544,-10.5182 -9.3e-4,30.00989 4.01622,-0.018 9.4e-4,-30.0099 z m -71.47391,41.28828 -1.99477,3.45504 25.98791,15.00411 1.98418,-3.49453 z m 114.76187,-30.7504 -15.01469,25.94842 3.46562,2.03426 15.00411,-25.98791 z m -127.27301,73.46659 0.007,3.97673 29.9704,0.0115 0.0321,-3.98731 z m 159.46609,-42.72886 -25.98885,15.00577 2.02146,3.43707 25.94936,-14.9952 z m -122.98055,71.0043 -25.94936,14.99519 1.98196,3.44765 25.98885,-15.00578 z m 105.5209,-28.27428 -0.0321,3.98731 30.00989,9.4e-4 -0.007,-3.97673 z m -85.74614,49.47216 -15.00412,25.98792 3.45504,1.99476 15.0147,-25.94842 z m 79.21966,-21.22687 -1.98419,3.49453 25.97733,14.96463 1.99477,-3.45504 z m -51.49606,29.75552 -9.4e-4,30.00989 4.01622,-0.018 9.4e-4,-30.00989 z m 31.75105,-8.50768 -3.48714,1.99254 15.00578,25.98885 3.48714,-1.99254 z" />
      </g>
      <g
         transform="rotate(30,256,256)"
         id="g3" />
      <g
         transform="rotate(60,256,256)"
         id="g4" />
      <g
         transform="rotate(90,256,256)"
         id="g5" />
      <g
         transform="rotate(120,256,256)"
         id="g6" />
      <g
         transform="rotate(150,256,256)"
         id="g7" />
      <g
         transform="rotate(180,256,256)"
         id="g8" />
      <g
         transform="rotate(-150,256,256)"
         id="g9" />
      <g
         transform="rotate(-120,256,256)"
         id="g10" />
      <g
         transform="rotate(-90,256,256)"
         id="g11" />
      <g
         transform="rotate(-60,256,256)"
         id="g12" />
      <g
         transform="rotate(-30,256,256)"
         id="g13" />
    </g>
    <!-- sun core -->
    <path
       id="path3"
       style="fill:none;fill-opacity:1;stroke:#8c8c8c;stroke-width:0.14;stroke-dasharray:none;stroke-opacity:1"
       d="M 4.376471,3.6162825 C 4.7698233,3.61632 5.088689,3.9351857 5.0887265,4.328538 5.0888418,4.7219984 4.7699314,5.0410328 4.376471,5.0410703 3.9830106,5.0410328 3.6641001,4.7219984 3.6642155,4.328538 3.664253,3.9351857 3.9831187,3.61632 4.376471,3.6162825 Z"
       sodipodi:nodetypes="ccccc" />
    <path
       id="path4"
       style="fill:none;fill-opacity:1;stroke:#6a6a6a;stroke-width:0.22;stroke-opacity:1;stroke-dasharray:none"
       d="m 1.2880611,-0.68171233 c 0.7343079,7.007e-5 1.3295645,0.59532671 1.3296346,1.3296346 C 2.617911,1.3824319 2.0225708,1.9780035 1.2880611,1.9780736 c -0.73450972,-7e-5 -1.32984998,-0.5956416 -1.32963465,-1.33015133 7.007e-5,-0.73430791 0.59532674,-1.32956456 1.32963465,-1.3296346 z"
       transform="translate(3.088416,3.6804957)"
       sodipodi:nodetypes="ccccc" />
  </g>
</svg>
